<svg width="395" height="458" viewBox="0 0 395 458" fill="none" xmlns="http://www.w3.org/2000/svg">
<path fill-rule="evenodd" clip-rule="evenodd" d="M181.821 40.0288C177.164 50.4013 174.092 65.0557 172.222 78.8202C173.463 82.4236 174.607 86.2283 175.661 90.1691C182.408 78.8759 190.542 71.8878 200.27 72.0014C208.179 72.0937 215.018 76.8172 220.903 84.6842C221.046 84.0356 221.191 83.3895 221.339 82.7462C218.277 56.9864 210.975 26.1691 196.635 26.0007C190.497 25.9286 185.629 31.5472 181.821 40.0288Z" fill="url(#paint0_linear_326_4)"/>
<path d="M234 458C229.49 352.043 201.188 139.903 124.064 139.003C98.4705 138.704 78.1708 161.981 62.2912 197.119C30.3183 267.868 16.2646 386.703 13 458H234Z" fill="url(#paint1_linear_326_4)"/>
<path fill-rule="evenodd" clip-rule="evenodd" d="M363.031 4.00015C367.218 4.04907 368.755 15.576 369 21.3333H367.831C366.281 14.6551 363.805 9.04436 360.051 9.00026C359.661 8.99568 359.285 9.0519 358.922 9.16383C359.15 8.4433 359.401 7.76778 359.676 7.15799C360.539 5.24871 361.641 3.98392 363.031 4.00015ZM360.914 21.3333C359.75 20.2606 358.494 19.5236 357.14 19.1946C357.076 19.9637 357.03 20.6847 357 21.3333H360.914Z" fill="url(#paint2_linear_326_4)"/>
<path fill-rule="evenodd" clip-rule="evenodd" d="M360.051 9.00026C367.031 9.08225 369.592 28.4053 370 38.0566H369.042C366.147 27.4254 361.821 19.0736 355.594 19.0005C354.555 18.9883 353.568 19.2098 352.631 19.6368C353.151 17.6808 353.758 15.8583 354.461 14.2939C355.898 11.0933 357.735 8.97305 360.051 9.00026ZM357.446 38.0566C355.291 35.6841 352.924 34.0529 350.331 33.3658C350.172 35.0713 350.063 36.6636 350 38.0566H357.446Z" fill="url(#paint3_linear_326_4)"/>
<path fill-rule="evenodd" clip-rule="evenodd" d="M331.737 59.0012C364.192 59.38 376.102 148.649 378 193.236H369.64C356.559 149.996 337.728 117.31 311.429 117.002C305.181 116.929 299.348 118.708 293.908 122.044C296.951 107.795 300.848 94.2869 305.742 83.4567C312.425 68.6705 320.967 58.8755 331.737 59.0012Z" fill="url(#paint4_linear_326_4)"/>
<path fill-rule="evenodd" clip-rule="evenodd" d="M200.27 72.0014C237.262 72.4331 250.837 174.18 253 225H196.112C185.33 193.405 171.914 167.337 155.417 152.467C159.099 133.11 164.085 114.385 170.642 99.8753C178.258 83.0223 187.995 71.8581 200.27 72.0014Z" fill="url(#paint5_linear_326_4)"/>
<path fill-rule="evenodd" clip-rule="evenodd" d="M37.2504 275.036C43.9774 246.296 52.2508 219.337 62.2912 197.119C74.9258 169.162 90.3586 148.713 109.03 141.673C98.9753 110.379 84.797 87.2293 65.3316 87.0017C50.2767 86.8256 38.3358 100.546 28.9948 121.259C10.1872 162.962 1.92038 233.009 0 275.036H37.2504Z" fill="url(#paint6_linear_326_4)"/>
<path d="M395 360C391.571 279.286 370.057 117.688 311.429 117.002C291.973 116.775 276.542 134.506 264.47 161.273C240.165 215.166 229.482 305.689 227 360H395Z" fill="url(#paint7_linear_326_4)"/>
<path d="M257 31C256.633 22.364 254.328 5.0736 248.046 5.00023C245.961 4.97588 244.308 6.87307 243.015 9.73699C240.411 15.5034 239.266 25.1889 239 31H257Z" fill="url(#paint8_linear_326_4)"/>
<path d="M265 14.4444C264.796 9.64666 263.515 0.0408886 260.026 0.00012867C258.867 -0.0133973 257.949 1.04059 257.23 2.63166C255.784 5.83521 255.148 11.2161 255 14.4444H265Z" fill="url(#paint9_linear_326_4)"/>
<path fill-rule="evenodd" clip-rule="evenodd" d="M155.417 152.467C159.099 133.11 164.085 114.385 170.642 99.8753C172.222 96.3783 173.894 93.1262 175.661 90.1693C169.402 66.7627 159.943 48.1607 146.204 48.001C136.94 47.8933 129.591 56.2847 123.843 68.9521C115.482 87.3768 110.506 114.848 107.942 138.37C108.31 139.46 108.672 140.562 109.03 141.673C113.825 139.865 118.834 138.942 124.064 139.003C135.575 139.137 145.998 143.977 155.417 152.467Z" fill="url(#paint10_linear_326_4)"/>
<path fill-rule="evenodd" clip-rule="evenodd" d="M347.651 33.0008C368.24 33.2431 375.796 90.3586 377 118.886H368.579C361.421 86.7721 349.74 59.2113 331.737 59.0012C330.16 58.9828 328.63 59.1772 327.147 59.569C328.348 55.6297 329.682 51.9448 331.159 48.6477C335.399 39.1873 340.818 32.9203 347.651 33.0008ZM321.795 118.886C320.566 118.443 319.319 118.076 318.052 117.787C318.034 118.158 318.016 118.524 318 118.886H321.795Z" fill="url(#paint11_linear_326_4)"/>
<path fill-rule="evenodd" clip-rule="evenodd" d="M355.594 19.0005C368.507 19.1522 373.245 54.8998 374 72.7547H371.335C366.825 51.599 359.337 33.1383 347.651 33.0008C346.132 32.9829 344.684 33.2784 343.303 33.8526C343.903 32.0517 344.552 30.3533 345.252 28.7937C347.911 22.8726 351.31 18.9501 355.594 19.0005ZM351.679 72.7547C347.676 66.6643 343.137 62.2653 338.009 60.2427C337.489 64.8431 337.164 69.1579 337 72.7547H351.679Z" fill="url(#paint12_linear_326_4)"/>
<path fill-rule="evenodd" clip-rule="evenodd" d="M362.165 9.66667C361.802 9.43183 361.423 9.25514 361.029 9.14286C361.017 9.32583 361.008 9.50097 361 9.66667H362.165ZM366.938 8.65928C366.699 5.62556 365.886 1.02193 364.015 1.00008C363.32 0.991962 362.769 1.62436 362.338 2.579C362.102 3.10271 361.901 3.72341 361.733 4.38855C362.135 4.1321 362.567 3.99474 363.031 4.00016C364.747 4.02021 366.019 5.96939 366.938 8.65928Z" fill="url(#paint13_linear_326_4)"/>
<path fill-rule="evenodd" clip-rule="evenodd" d="M282 138.987C280.612 106.108 271.904 40.2802 248.173 40.0009C240.299 39.9082 234.053 47.1312 229.167 58.0347C225.793 65.5623 223.068 74.8442 220.903 84.6842C230.11 96.9912 236.985 116.991 241.976 138.987H282Z" fill="url(#paint14_linear_326_4)"/>
<path fill-rule="evenodd" clip-rule="evenodd" d="M241.597 41.7499C239.64 27.9501 235.544 13.0886 228.077 13.0004C224.602 12.9593 221.847 16.1587 219.691 20.9884C216.664 27.7697 214.821 37.7651 213.832 46.5174C214.938 49.7512 215.929 53.2293 216.815 56.8462H229.711C233.037 49.7577 236.973 44.3661 241.597 41.7499Z" fill="url(#paint15_linear_326_4)"/>
<path fill-rule="evenodd" clip-rule="evenodd" d="M276.615 22.0006C292.319 22.1851 298.082 65.662 299 87.3774H275.798C272.282 70.3267 267.12 54.5944 259.837 46.2468C261.026 41.7268 262.419 37.5147 264.037 33.9112C267.27 26.7099 271.403 21.9394 276.615 22.0006Z" fill="url(#paint16_linear_326_4)"/>
<path fill-rule="evenodd" clip-rule="evenodd" d="M292.559 10.0003C300.585 10.0946 303.531 32.3161 304 43.4151H292.475C290.168 35.4856 287.169 28.775 283.337 25.0762C284.069 21.7574 284.99 18.627 286.13 16.088C287.782 12.4073 289.895 9.96901 292.559 10.0003Z" fill="url(#paint17_linear_326_4)"/>
<path fill-rule="evenodd" clip-rule="evenodd" d="M304.538 4.00019C309.773 4.06133 311.694 18.47 312 25.6667H301.834C300.965 21.5488 299.809 17.6801 298.304 14.8173C298.813 12.2833 299.483 9.85742 300.346 7.94749C301.423 5.56089 302.801 3.9799 304.538 4.00019Z" fill="url(#paint18_linear_326_4)"/>
<defs>
<linearGradient id="paint0_linear_326_4" x1="196.5" y1="26" x2="196.5" y2="103" gradientUnits="userSpaceOnUse">
<stop stop-color="#050DCA" stop-opacity="0.4"/>
<stop offset="1" stop-color="#78C0E0" stop-opacity="0"/>
</linearGradient>
<linearGradient id="paint1_linear_326_4" x1="123.5" y1="139" x2="123.5" y2="458" gradientUnits="userSpaceOnUse">
<stop stop-color="#050DCA"/>
<stop offset="1" stop-color="#78C0E0" stop-opacity="0"/>
</linearGradient>
<linearGradient id="paint2_linear_326_4" x1="363" y1="4" x2="363" y2="21.3333" gradientUnits="userSpaceOnUse">
<stop stop-color="#050DCA" stop-opacity="0.13"/>
<stop offset="1" stop-color="#78C0E0" stop-opacity="0"/>
</linearGradient>
<linearGradient id="paint3_linear_326_4" x1="360" y1="9" x2="360" y2="38.0566" gradientUnits="userSpaceOnUse">
<stop stop-color="#050DCA" stop-opacity="0.25"/>
<stop offset="1" stop-color="#78C0E0" stop-opacity="0"/>
</linearGradient>
<linearGradient id="paint4_linear_326_4" x1="331.5" y1="59" x2="331.5" y2="193.236" gradientUnits="userSpaceOnUse">
<stop stop-color="#050DCA" stop-opacity="0.55"/>
<stop offset="1" stop-color="#78C0E0" stop-opacity="0"/>
</linearGradient>
<linearGradient id="paint5_linear_326_4" x1="200" y1="72" x2="200" y2="225" gradientUnits="userSpaceOnUse">
<stop stop-color="#050DCA" stop-opacity="0.6"/>
<stop offset="1" stop-color="#78C0E0" stop-opacity="0"/>
</linearGradient>
<linearGradient id="paint6_linear_326_4" x1="65" y1="87" x2="65" y2="275.036" gradientUnits="userSpaceOnUse">
<stop stop-color="#050DCA" stop-opacity="0.7"/>
<stop offset="1" stop-color="#78C0E0" stop-opacity="0"/>
</linearGradient>
<linearGradient id="paint7_linear_326_4" x1="311" y1="117" x2="311" y2="360" gradientUnits="userSpaceOnUse">
<stop stop-color="#050DCA" stop-opacity="0.8"/>
<stop offset="1" stop-color="#78C0E0" stop-opacity="0"/>
</linearGradient>
<linearGradient id="paint8_linear_326_4" x1="248" y1="5" x2="248" y2="31" gradientUnits="userSpaceOnUse">
<stop stop-color="#050DCA" stop-opacity="0.2"/>
<stop offset="1" stop-color="#78C0E0" stop-opacity="0"/>
</linearGradient>
<linearGradient id="paint9_linear_326_4" x1="260" y1="0" x2="260" y2="14.4444" gradientUnits="userSpaceOnUse">
<stop stop-color="#050DCA" stop-opacity="0.2"/>
<stop offset="1" stop-color="#78C0E0" stop-opacity="0"/>
</linearGradient>
<linearGradient id="paint10_linear_326_4" x1="146" y1="48" x2="146" y2="163" gradientUnits="userSpaceOnUse">
<stop stop-color="#050DCA" stop-opacity="0.5"/>
<stop offset="1" stop-color="#78C0E0" stop-opacity="0"/>
</linearGradient>
<linearGradient id="paint11_linear_326_4" x1="347.5" y1="33" x2="347.5" y2="118.886" gradientUnits="userSpaceOnUse">
<stop stop-color="#050DCA" stop-opacity="0.45"/>
<stop offset="1" stop-color="#78C0E0" stop-opacity="0"/>
</linearGradient>
<linearGradient id="paint12_linear_326_4" x1="355.5" y1="19" x2="355.5" y2="72.7547" gradientUnits="userSpaceOnUse">
<stop stop-color="#050DCA" stop-opacity="0.32"/>
<stop offset="1" stop-color="#78C0E0" stop-opacity="0"/>
</linearGradient>
<linearGradient id="paint13_linear_326_4" x1="364" y1="1" x2="364" y2="9.66667" gradientUnits="userSpaceOnUse">
<stop stop-color="#050DCA" stop-opacity="0.06"/>
<stop offset="1" stop-color="#78C0E0" stop-opacity="0"/>
</linearGradient>
<linearGradient id="paint14_linear_326_4" x1="248" y1="40" x2="248" y2="138.987" gradientUnits="userSpaceOnUse">
<stop stop-color="#050DCA" stop-opacity="0.5"/>
<stop offset="1" stop-color="#78C0E0" stop-opacity="0"/>
</linearGradient>
<linearGradient id="paint15_linear_326_4" x1="228" y1="13" x2="228" y2="56.8462" gradientUnits="userSpaceOnUse">
<stop stop-color="#050DCA" stop-opacity="0.3"/>
<stop offset="1" stop-color="#78C0E0" stop-opacity="0"/>
</linearGradient>
<linearGradient id="paint16_linear_326_4" x1="276.5" y1="22" x2="276.5" y2="87.3774" gradientUnits="userSpaceOnUse">
<stop stop-color="#050DCA" stop-opacity="0.35"/>
<stop offset="1" stop-color="#78C0E0" stop-opacity="0"/>
</linearGradient>
<linearGradient id="paint17_linear_326_4" x1="292.5" y1="10" x2="292.5" y2="43.4151" gradientUnits="userSpaceOnUse">
<stop stop-color="#050DCA" stop-opacity="0.28"/>
<stop offset="1" stop-color="#78C0E0" stop-opacity="0"/>
</linearGradient>
<linearGradient id="paint18_linear_326_4" x1="304.5" y1="4" x2="304.5" y2="25.6667" gradientUnits="userSpaceOnUse">
<stop stop-color="#050DCA" stop-opacity="0.18"/>
<stop offset="1" stop-color="#78C0E0" stop-opacity="0"/>
</linearGradient>
</defs>
</svg>
