<svg width="586" height="253" viewBox="0 0 586 253" fill="none" xmlns="http://www.w3.org/2000/svg">
<path d="M4.385 30.405H7.784V31.791C7.784 31.901 7.883 32 7.993 32H8.906C9.016 32 9.115 31.901 9.115 31.791L9.104 30.383H9.984C10.105 30.383 10.193 30.284 10.193 30.174V29.492C10.193 29.382 10.105 29.294 9.984 29.294H9.104V24.608C9.104 24.487 9.005 24.399 8.895 24.399H8.301C8.224 24.399 8.169 24.432 8.136 24.465L4.176 29.283V30.196C4.176 30.306 4.264 30.405 4.385 30.405ZM5.628 29.261L7.828 26.621V29.261H5.628ZM14.0065 32.11C15.7665 32.11 16.7785 30.669 16.7785 28.26C16.7785 25.851 15.7665 24.41 14.0065 24.41C12.2465 24.41 11.2345 25.851 11.2345 28.26C11.2345 30.669 12.2465 32.11 14.0065 32.11ZM14.0065 30.812C13.1595 30.812 12.6755 29.899 12.6755 28.26C12.6755 26.632 13.1595 25.708 14.0065 25.708C14.8535 25.708 15.3375 26.632 15.3375 28.26C15.3375 29.899 14.8535 30.812 14.0065 30.812ZM17.8452 31.219C17.8452 31.703 18.2522 32.11 18.7362 32.11C18.9672 32.11 19.1432 32.022 19.1542 32.022C19.1542 32.946 18.3952 33.518 18.2742 33.628C18.1642 33.716 18.1532 33.837 18.2302 33.925L18.3952 34.101C18.4942 34.2 18.5712 34.189 18.6702 34.123C19.0772 33.87 19.9242 33.1 19.9242 31.747C19.9242 30.658 19.2862 30.306 18.8132 30.306C18.2522 30.306 17.8452 30.724 17.8452 31.219ZM23.5778 32.11C25.3378 32.11 26.3498 30.669 26.3498 28.26C26.3498 25.851 25.3378 24.41 23.5778 24.41C21.8178 24.41 20.8058 25.851 20.8058 28.26C20.8058 30.669 21.8178 32.11 23.5778 32.11ZM23.5778 30.812C22.7308 30.812 22.2468 29.899 22.2468 28.26C22.2468 26.632 22.7308 25.708 23.5778 25.708C24.4248 25.708 24.9088 26.632 24.9088 28.26C24.9088 29.899 24.4248 30.812 23.5778 30.812ZM30.4635 32.11C32.2235 32.11 33.2355 30.669 33.2355 28.26C33.2355 25.851 32.2235 24.41 30.4635 24.41C28.7035 24.41 27.6915 25.851 27.6915 28.26C27.6915 30.669 28.7035 32.11 30.4635 32.11ZM30.4635 30.812C29.6165 30.812 29.1325 29.899 29.1325 28.26C29.1325 26.632 29.6165 25.708 30.4635 25.708C31.3105 25.708 31.7945 26.632 31.7945 28.26C31.7945 29.899 31.3105 30.812 30.4635 30.812ZM37.3493 32.11C39.1093 32.11 40.1212 30.669 40.1212 28.26C40.1212 25.851 39.1093 24.41 37.3493 24.41C35.5893 24.41 34.5773 25.851 34.5773 28.26C34.5773 30.669 35.5893 32.11 37.3493 32.11ZM37.3493 30.812C36.5023 30.812 36.0183 29.899 36.0183 28.26C36.0183 26.632 36.5023 25.708 37.3493 25.708C38.1963 25.708 38.6803 26.632 38.6803 28.26C38.6803 29.899 38.1963 30.812 37.3493 30.812Z" fill="#0E0E52" fill-opacity="0.25"/>
<path d="M4.627 11.197C4.902 11.527 5.617 12.11 6.794 12.11C8.312 12.11 9.456 10.966 9.456 9.591C9.456 8.15 8.499 7.149 6.937 7.149H5.991V5.686H8.433C8.554 5.686 8.642 5.587 8.642 5.477V4.729C8.642 4.619 8.554 4.52 8.433 4.52H4.957C4.836 4.52 4.748 4.619 4.748 4.729V7.974C4.748 8.15 4.869 8.359 5.089 8.359H6.783C7.652 8.359 8.114 8.909 8.114 9.591C8.114 10.284 7.586 10.889 6.838 10.889C6.101 10.889 5.463 10.317 5.419 10.273C5.331 10.196 5.232 10.218 5.155 10.284L4.605 10.823C4.473 10.955 4.484 11.032 4.627 11.197ZM13.2545 12.11C15.0145 12.11 16.0265 10.669 16.0265 8.26C16.0265 5.851 15.0145 4.41 13.2545 4.41C11.4945 4.41 10.4825 5.851 10.4825 8.26C10.4825 10.669 11.4945 12.11 13.2545 12.11ZM13.2545 10.812C12.4075 10.812 11.9235 9.899 11.9235 8.26C11.9235 6.632 12.4075 5.708 13.2545 5.708C14.1015 5.708 14.5855 6.632 14.5855 8.26C14.5855 9.899 14.1015 10.812 13.2545 10.812ZM17.0933 11.219C17.0933 11.703 17.5003 12.11 17.9843 12.11C18.2153 12.11 18.3913 12.022 18.4023 12.022C18.4023 12.946 17.6433 13.518 17.5223 13.628C17.4123 13.716 17.4013 13.837 17.4783 13.925L17.6433 14.101C17.7423 14.2 17.8193 14.189 17.9183 14.123C18.3253 13.87 19.1723 13.1 19.1723 11.747C19.1723 10.658 18.5343 10.306 18.0613 10.306C17.5003 10.306 17.0933 10.724 17.0933 11.219ZM22.8258 12.11C24.5858 12.11 25.5978 10.669 25.5978 8.26C25.5978 5.851 24.5858 4.41 22.8258 4.41C21.0658 4.41 20.0538 5.851 20.0538 8.26C20.0538 10.669 21.0658 12.11 22.8258 12.11ZM22.8258 10.812C21.9788 10.812 21.4948 9.899 21.4948 8.26C21.4948 6.632 21.9788 5.708 22.8258 5.708C23.6728 5.708 24.1568 6.632 24.1568 8.26C24.1568 9.899 23.6728 10.812 22.8258 10.812ZM29.7116 12.11C31.4716 12.11 32.4836 10.669 32.4836 8.26C32.4836 5.851 31.4716 4.41 29.7116 4.41C27.9516 4.41 26.9396 5.851 26.9396 8.26C26.9396 10.669 27.9516 12.11 29.7116 12.11ZM29.7116 10.812C28.8646 10.812 28.3806 9.899 28.3806 8.26C28.3806 6.632 28.8646 5.708 29.7116 5.708C30.5586 5.708 31.0426 6.632 31.0426 8.26C31.0426 9.899 30.5586 10.812 29.7116 10.812ZM36.5973 12.11C38.3573 12.11 39.3693 10.669 39.3693 8.26C39.3693 5.851 38.3573 4.41 36.5973 4.41C34.8373 4.41 33.8253 5.851 33.8253 8.26C33.8253 10.669 34.8373 12.11 36.5973 12.11ZM36.5973 10.812C35.7503 10.812 35.2663 9.899 35.2663 8.26C35.2663 6.632 35.7503 5.708 36.5973 5.708C37.4443 5.708 37.9283 6.632 37.9283 8.26C37.9283 9.899 37.4443 10.812 36.5973 10.812Z" fill="#0E0E52" fill-opacity="0.25"/>
<path d="M4.396 51.131C4.638 51.417 5.309 52.11 6.684 52.11C8.202 52.11 9.214 51.208 9.214 49.965C9.214 48.986 8.4 48.392 7.883 48.172V48.139C8.378 47.908 9.016 47.27 9.016 46.423C9.016 45.191 7.949 44.41 6.673 44.41C5.441 44.41 4.605 45.378 4.605 45.378C4.528 45.455 4.517 45.587 4.605 45.664L5.144 46.17C5.243 46.258 5.364 46.247 5.441 46.159C5.628 45.939 5.98 45.631 6.552 45.631C7.113 45.631 7.619 46.038 7.619 46.643C7.619 47.204 7.157 47.655 6.255 47.655H5.639C5.507 47.655 5.43 47.732 5.43 47.875V48.568C5.43 48.7 5.518 48.788 5.639 48.788H6.255C7.245 48.788 7.773 49.305 7.773 49.877C7.773 50.482 7.201 50.911 6.607 50.911C5.936 50.911 5.287 50.361 5.254 50.317C5.166 50.229 5.067 50.229 4.968 50.317L4.407 50.856C4.341 50.933 4.33 51.054 4.396 51.131ZM13.1901 52.11C14.9501 52.11 15.9621 50.669 15.9621 48.26C15.9621 45.851 14.9501 44.41 13.1901 44.41C11.4301 44.41 10.4181 45.851 10.4181 48.26C10.4181 50.669 11.4301 52.11 13.1901 52.11ZM13.1901 50.812C12.3431 50.812 11.8591 49.899 11.8591 48.26C11.8591 46.632 12.3431 45.708 13.1901 45.708C14.0371 45.708 14.5211 46.632 14.5211 48.26C14.5211 49.899 14.0371 50.812 13.1901 50.812ZM17.0288 51.219C17.0288 51.703 17.4358 52.11 17.9198 52.11C18.1508 52.11 18.3268 52.022 18.3378 52.022C18.3378 52.946 17.5788 53.518 17.4578 53.628C17.3478 53.716 17.3368 53.837 17.4138 53.925L17.5788 54.101C17.6778 54.2 17.7548 54.189 17.8538 54.123C18.2608 53.87 19.1078 53.1 19.1078 51.747C19.1078 50.658 18.4698 50.306 17.9968 50.306C17.4358 50.306 17.0288 50.724 17.0288 51.219ZM22.7614 52.11C24.5214 52.11 25.5334 50.669 25.5334 48.26C25.5334 45.851 24.5214 44.41 22.7614 44.41C21.0014 44.41 19.9894 45.851 19.9894 48.26C19.9894 50.669 21.0014 52.11 22.7614 52.11ZM22.7614 50.812C21.9144 50.812 21.4304 49.899 21.4304 48.26C21.4304 46.632 21.9144 45.708 22.7614 45.708C23.6084 45.708 24.0924 46.632 24.0924 48.26C24.0924 49.899 23.6084 50.812 22.7614 50.812ZM29.6471 52.11C31.4071 52.11 32.4191 50.669 32.4191 48.26C32.4191 45.851 31.4071 44.41 29.6471 44.41C27.8871 44.41 26.8751 45.851 26.8751 48.26C26.8751 50.669 27.8871 52.11 29.6471 52.11ZM29.6471 50.812C28.8001 50.812 28.3161 49.899 28.3161 48.26C28.3161 46.632 28.8001 45.708 29.6471 45.708C30.4941 45.708 30.9781 46.632 30.9781 48.26C30.9781 49.899 30.4941 50.812 29.6471 50.812ZM36.5328 52.11C38.2928 52.11 39.3048 50.669 39.3048 48.26C39.3048 45.851 38.2928 44.41 36.5328 44.41C34.7728 44.41 33.7608 45.851 33.7608 48.26C33.7608 50.669 34.7728 52.11 36.5328 52.11ZM36.5328 50.812C35.6858 50.812 35.2018 49.899 35.2018 48.26C35.2018 46.632 35.6858 45.708 36.5328 45.708C37.3798 45.708 37.8638 46.632 37.8638 48.26C37.8638 49.899 37.3798 50.812 36.5328 50.812Z" fill="#0E0E52" fill-opacity="0.25"/>
<path d="M114 120C114 125.523 109.523 130 104 130V130C98.4772 130 94 125.523 94 120L94 109L114 109L114 120Z" fill="#0E0E52"/>
<path d="M239 197C239 202.523 234.523 207 229 207V207C223.477 207 219 202.523 219 197L219 109L239 109L239 197Z" fill="#0E0E52"/>
<path d="M571 133C571 138.523 566.523 143 561 143V143C555.477 143 551 138.523 551 133L551 109L571 109L571 133Z" fill="#0E0E52"/>
<path d="M530 133C530 138.523 525.523 143 520 143V143C514.477 143 510 138.523 510 133L510 109L530 109L530 133Z" fill="#0E0E52"/>
<path d="M488 159C488 164.523 483.523 169 478 169V169C472.477 169 468 164.523 468 159L468 109L488 109L488 159Z" fill="#0E0E52"/>
<path d="M448 133C448 138.523 443.523 143 438 143V143C432.477 143 428 138.523 428 133L428 109L448 109L448 133Z" fill="#0E0E52"/>
<path d="M406 132C406 137.523 401.523 142 396 142V142C390.477 142 386 137.523 386 132L386 109L406 109L406 132Z" fill="#0E0E52"/>
<path d="M363 172C363 177.523 358.523 182 353 182V182C347.477 182 343 177.523 343 172L343 109L363 109L363 172Z" fill="#0E0E52"/>
<path d="M322 151C322 156.523 317.523 161 312 161V161C306.477 161 302 156.523 302 151L302 109L322 109L322 151Z" fill="#0E0E52"/>
<path d="M196 179C196 184.523 191.523 189 186 189V189C180.477 189 176 184.523 176 179L176 109L196 109L196 179Z" fill="#0E0E52"/>
<path d="M156 159C156 164.523 151.523 169 146 169V169C140.477 169 136 164.523 136 159L136 109L156 109L156 159Z" fill="#0E0E52"/>
<path d="M280 179C280 184.523 275.523 189 270 189V189C264.477 189 260 184.523 260 179L260 109L280 109L280 179Z" fill="#0E0E52"/>
<path d="M345.001 232.791C345.001 232.901 345.089 233 345.199 233H347.806C349.929 233 351.667 231.273 351.667 229.139C351.667 227.027 349.929 225.3 347.806 225.3H345.199C345.089 225.3 345.001 225.399 345.001 225.509V232.791ZM346.42 231.658V226.631H347.674C349.104 226.631 350.149 227.709 350.149 229.139C350.149 230.58 349.104 231.658 347.674 231.658H346.42ZM353.258 227.038C353.687 227.038 354.028 226.697 354.028 226.279C354.028 225.861 353.687 225.52 353.258 225.52C352.84 225.52 352.51 225.861 352.51 226.279C352.51 226.697 352.84 227.038 353.258 227.038ZM352.609 232.791C352.609 232.901 352.708 233 352.818 233H353.731C353.841 233 353.94 232.901 353.94 232.791V228.809C353.94 228.688 353.841 228.6 353.731 228.6H352.818C352.708 228.6 352.609 228.688 352.609 228.809V232.791ZM354.922 230.8C354.922 232.12 356.011 233.11 357.254 233.11C358.035 233.11 358.618 232.769 358.992 232.186C359.069 232.076 359.025 231.966 358.915 231.878L358.442 231.471C358.354 231.405 358.244 231.427 358.167 231.504C357.969 231.691 357.76 231.922 357.287 231.922C356.693 231.922 356.22 231.427 356.22 230.8C356.22 230.184 356.704 229.678 357.298 229.678C357.606 229.678 357.881 229.832 358.057 230.03C358.134 230.096 358.233 230.151 358.332 230.063L358.838 229.579C358.948 229.502 358.97 229.37 358.893 229.271C358.475 228.765 357.947 228.49 357.265 228.49C356.033 228.49 354.922 229.502 354.922 230.8Z" fill="#0E0E52" fill-opacity="0.25"/>
<path d="M467.495 232.747C467.473 232.901 467.561 233 467.704 233H468.694C468.793 233 468.881 232.912 468.892 232.835L469.53 228.666C469.541 228.666 469.563 228.666 469.563 228.666L471.51 232.989C471.543 233.055 471.598 233.11 471.697 233.11H471.895C471.994 233.11 472.06 233.055 472.082 232.989L474.007 228.666C474.007 228.666 474.029 228.666 474.04 228.666L474.689 232.835C474.711 232.912 474.799 233 474.898 233H475.899C476.042 233 476.13 232.901 476.097 232.747L474.799 225.355C474.788 225.267 474.722 225.19 474.601 225.19H474.425C474.326 225.19 474.271 225.234 474.238 225.3L471.818 230.492C471.807 230.492 471.807 230.492 471.785 230.492L469.365 225.3C469.332 225.234 469.266 225.19 469.178 225.19H469.002C468.881 225.19 468.815 225.267 468.804 225.355L467.495 232.747ZM476.837 231.603C476.837 232.538 477.442 233.11 478.322 233.11C479.004 233.11 479.411 232.78 479.664 232.549L479.796 232.846C479.851 232.967 479.906 233 479.983 233H480.379C480.489 233 480.588 232.901 480.588 232.791V230.404C480.588 229.205 480.269 228.49 478.894 228.49C478.19 228.49 477.486 228.666 477.398 228.699C477.299 228.732 477.211 228.809 477.244 228.974L477.343 229.546C477.365 229.689 477.442 229.788 477.596 229.744C477.849 229.667 478.421 229.579 478.828 229.579C479.235 229.579 479.411 229.777 479.4 230.338C479.4 230.338 479.037 230.217 478.597 230.217C477.475 230.217 476.837 230.822 476.837 231.603ZM478.047 231.603C478.047 231.251 478.333 231.009 478.762 231.009C479.081 231.009 479.378 231.141 479.378 231.141V231.746C479.312 231.878 478.971 232.175 478.619 232.175C478.278 232.175 478.047 231.933 478.047 231.603ZM481.85 232.791C481.85 232.901 481.949 233 482.059 233H482.906C483.06 233 483.159 232.945 483.159 232.791V230.129C483.236 229.975 483.5 229.678 483.94 229.678C484.061 229.678 484.226 229.733 484.259 229.744C484.347 229.788 484.457 229.744 484.512 229.645L484.919 228.93C485.051 228.655 484.589 228.49 484.072 228.49C483.39 228.49 482.983 228.952 482.829 229.172L482.675 228.743C482.642 228.655 482.576 228.6 482.477 228.6H482.059C481.949 228.6 481.85 228.688 481.85 228.809V232.791Z" fill="#0E0E52" fill-opacity="0.25"/>
<path d="M429.001 232.791C429.001 232.901 429.089 233 429.21 233H430.222C430.332 233 430.431 232.901 430.431 232.791V230.008H433.148C433.258 230.008 433.357 229.909 433.357 229.799V228.897C433.357 228.787 433.258 228.688 433.148 228.688H430.431V226.62H433.687C433.808 226.62 433.896 226.521 433.896 226.411V225.509C433.896 225.399 433.808 225.3 433.687 225.3H429.21C429.089 225.3 429.001 225.399 429.001 225.509V232.791ZM434.152 230.8C434.152 232.065 435.087 233.11 436.407 233.11C437.122 233.11 437.683 232.846 438.046 232.505C438.156 232.417 438.134 232.296 438.057 232.219L437.606 231.702C437.529 231.614 437.43 231.636 437.32 231.702C437.122 231.845 436.803 231.977 436.462 231.977C435.824 231.977 435.439 231.471 435.406 231.02H438.222C438.321 231.02 438.42 230.943 438.431 230.833C438.442 230.756 438.453 230.613 438.453 230.536C438.453 229.348 437.529 228.49 436.396 228.49C435.087 228.49 434.152 229.557 434.152 230.8ZM435.505 230.25C435.56 229.832 435.923 229.502 436.363 229.502C436.781 229.502 437.133 229.843 437.166 230.25H435.505ZM439.381 232.791C439.381 232.901 439.48 233 439.59 233H440.019C440.118 233 440.195 232.912 440.228 232.791L440.338 232.45C440.338 232.45 440.855 233.11 441.779 233.11C442.978 233.11 443.891 232.065 443.891 230.8C443.891 229.513 443.022 228.49 441.713 228.49C441.273 228.49 440.932 228.611 440.734 228.688V225.509C440.734 225.399 440.635 225.3 440.525 225.3H439.59C439.48 225.3 439.381 225.399 439.381 225.509V232.791ZM440.69 231.207V229.931C440.69 229.931 440.998 229.678 441.548 229.678C442.164 229.678 442.615 230.184 442.615 230.8C442.615 231.416 442.197 231.922 441.614 231.922C441.031 231.922 440.767 231.471 440.69 231.207Z" fill="#0E0E52" fill-opacity="0.25"/>
<path d="M386.001 232.791C386.001 232.901 386.089 233 386.21 233H390.687C390.808 233 390.896 232.901 390.896 232.791V231.889C390.896 231.779 390.808 231.68 390.687 231.68H387.431V229.755H390.148C390.258 229.755 390.357 229.667 390.357 229.546V228.633C390.357 228.523 390.258 228.424 390.148 228.424H387.431V226.62H390.687C390.808 226.62 390.896 226.521 390.896 226.411V225.509C390.896 225.399 390.808 225.3 390.687 225.3H386.21C386.089 225.3 386.001 225.399 386.001 225.509V232.791ZM391.933 232.791C391.933 232.901 392.032 233 392.142 233H392.956C393.165 233 393.231 232.945 393.231 232.791V230.371C393.341 230.074 393.693 229.678 394.265 229.678C394.793 229.678 395.09 230.041 395.09 230.613V232.791C395.09 232.901 395.178 233 395.299 233H396.201C396.311 233 396.41 232.901 396.41 232.791V230.679C396.41 229.535 395.849 228.49 394.452 228.49C393.605 228.49 393.066 228.963 392.901 229.139L392.747 228.732C392.714 228.655 392.659 228.6 392.56 228.6H392.142C392.032 228.6 391.933 228.688 391.933 228.809V232.791ZM397.308 230.8C397.308 232.065 398.243 233.11 399.563 233.11C400.278 233.11 400.839 232.846 401.202 232.505C401.312 232.417 401.29 232.296 401.213 232.219L400.762 231.702C400.685 231.614 400.586 231.636 400.476 231.702C400.278 231.845 399.959 231.977 399.618 231.977C398.98 231.977 398.595 231.471 398.562 231.02H401.378C401.477 231.02 401.576 230.943 401.587 230.833C401.598 230.756 401.609 230.613 401.609 230.536C401.609 229.348 400.685 228.49 399.552 228.49C398.243 228.49 397.308 229.557 397.308 230.8ZM398.661 230.25C398.716 229.832 399.079 229.502 399.519 229.502C399.937 229.502 400.289 229.843 400.322 230.25H398.661Z" fill="#0E0E52" fill-opacity="0.25"/>
<path d="M22.443 112.11C24.203 112.11 25.215 110.669 25.215 108.26C25.215 105.851 24.203 104.41 22.443 104.41C20.683 104.41 19.671 105.851 19.671 108.26C19.671 110.669 20.683 112.11 22.443 112.11ZM22.443 110.812C21.596 110.812 21.112 109.899 21.112 108.26C21.112 106.632 21.596 105.708 22.443 105.708C23.29 105.708 23.774 106.632 23.774 108.26C23.774 109.899 23.29 110.812 22.443 110.812Z" fill="#0E0E52" fill-opacity="0.25"/>
<path d="M5.551 91.791C5.551 91.901 5.639 92 5.76 92H6.706C6.816 92 6.904 91.901 6.904 91.791V84.729C6.904 84.619 6.816 84.52 6.706 84.52H5.936L4.352 85.851C4.308 85.895 4.286 85.961 4.297 86.049L4.363 86.588C4.374 86.687 4.484 86.753 4.583 86.731L5.551 86.522V91.791ZM11.3424 92.11C13.1024 92.11 14.1144 90.669 14.1144 88.26C14.1144 85.851 13.1024 84.41 11.3424 84.41C9.58241 84.41 8.57041 85.851 8.57041 88.26C8.57041 90.669 9.58241 92.11 11.3424 92.11ZM11.3424 90.812C10.4954 90.812 10.0114 89.899 10.0114 88.26C10.0114 86.632 10.4954 85.708 11.3424 85.708C12.1894 85.708 12.6734 86.632 12.6734 88.26C12.6734 89.899 12.1894 90.812 11.3424 90.812ZM15.1812 91.219C15.1812 91.703 15.5882 92.11 16.0722 92.11C16.3032 92.11 16.4792 92.022 16.4902 92.022C16.4902 92.946 15.7312 93.518 15.6102 93.628C15.5002 93.716 15.4892 93.837 15.5662 93.925L15.7312 94.101C15.8302 94.2 15.9072 94.189 16.0062 94.123C16.4132 93.87 17.2602 93.1 17.2602 91.747C17.2602 90.658 16.6222 90.306 16.1492 90.306C15.5882 90.306 15.1812 90.724 15.1812 91.219ZM20.9137 92.11C22.6737 92.11 23.6857 90.669 23.6857 88.26C23.6857 85.851 22.6737 84.41 20.9137 84.41C19.1537 84.41 18.1417 85.851 18.1417 88.26C18.1417 90.669 19.1537 92.11 20.9137 92.11ZM20.9137 90.812C20.0667 90.812 19.5827 89.899 19.5827 88.26C19.5827 86.632 20.0667 85.708 20.9137 85.708C21.7607 85.708 22.2447 86.632 22.2447 88.26C22.2447 89.899 21.7607 90.812 20.9137 90.812ZM27.7994 92.11C29.5594 92.11 30.5714 90.669 30.5714 88.26C30.5714 85.851 29.5594 84.41 27.7994 84.41C26.0394 84.41 25.0274 85.851 25.0274 88.26C25.0274 90.669 26.0394 92.11 27.7994 92.11ZM27.7994 90.812C26.9524 90.812 26.4684 89.899 26.4684 88.26C26.4684 86.632 26.9524 85.708 27.7994 85.708C28.6464 85.708 29.1304 86.632 29.1304 88.26C29.1304 89.899 28.6464 90.812 27.7994 90.812ZM34.6852 92.11C36.4452 92.11 37.4572 90.669 37.4572 88.26C37.4572 85.851 36.4452 84.41 34.6852 84.41C32.9252 84.41 31.9132 85.851 31.9132 88.26C31.9132 90.669 32.9252 92.11 34.6852 92.11ZM34.6852 90.812C33.8382 90.812 33.3542 89.899 33.3542 88.26C33.3542 86.632 33.8382 85.708 34.6852 85.708C35.5322 85.708 36.0162 86.632 36.0162 88.26C36.0162 89.899 35.5322 90.812 34.6852 90.812Z" fill="#0E0E52" fill-opacity="0.25"/>
<path d="M4.341 71.791C4.341 71.901 4.429 72 4.55 72H8.884C8.994 72 9.093 71.901 9.093 71.791V71.032C9.093 70.922 8.994 70.823 8.884 70.823H6.508C7.091 70.086 7.927 69.052 8.4 68.381C8.829 67.765 9.137 67.314 9.137 66.599C9.137 65.411 8.257 64.41 6.684 64.41C5.375 64.41 4.517 65.488 4.517 65.488C4.44 65.576 4.462 65.708 4.528 65.774L5.056 66.302C5.144 66.39 5.265 66.39 5.353 66.302C5.606 66.027 6.057 65.653 6.585 65.653C7.377 65.653 7.751 66.159 7.751 66.654C7.751 67.028 7.531 67.457 7.19 67.875C6.453 68.854 5.067 70.658 4.341 71.538V71.791ZM13.1364 72.11C14.8964 72.11 15.9084 70.669 15.9084 68.26C15.9084 65.851 14.8964 64.41 13.1364 64.41C11.3764 64.41 10.3644 65.851 10.3644 68.26C10.3644 70.669 11.3764 72.11 13.1364 72.11ZM13.1364 70.812C12.2894 70.812 11.8054 69.899 11.8054 68.26C11.8054 66.632 12.2894 65.708 13.1364 65.708C13.9834 65.708 14.4674 66.632 14.4674 68.26C14.4674 69.899 13.9834 70.812 13.1364 70.812ZM16.9751 71.219C16.9751 71.703 17.3821 72.11 17.8661 72.11C18.0971 72.11 18.2731 72.022 18.2841 72.022C18.2841 72.946 17.5251 73.518 17.4041 73.628C17.2941 73.716 17.2831 73.837 17.3601 73.925L17.5251 74.101C17.6241 74.2 17.7011 74.189 17.8001 74.123C18.2071 73.87 19.0541 73.1 19.0541 71.747C19.0541 70.658 18.4161 70.306 17.9431 70.306C17.3821 70.306 16.9751 70.724 16.9751 71.219ZM22.7076 72.11C24.4676 72.11 25.4796 70.669 25.4796 68.26C25.4796 65.851 24.4676 64.41 22.7076 64.41C20.9476 64.41 19.9356 65.851 19.9356 68.26C19.9356 70.669 20.9476 72.11 22.7076 72.11ZM22.7076 70.812C21.8606 70.812 21.3766 69.899 21.3766 68.26C21.3766 66.632 21.8606 65.708 22.7076 65.708C23.5546 65.708 24.0386 66.632 24.0386 68.26C24.0386 69.899 23.5546 70.812 22.7076 70.812ZM29.5934 72.11C31.3534 72.11 32.3654 70.669 32.3654 68.26C32.3654 65.851 31.3534 64.41 29.5934 64.41C27.8334 64.41 26.8214 65.851 26.8214 68.26C26.8214 70.669 27.8334 72.11 29.5934 72.11ZM29.5934 70.812C28.7464 70.812 28.2624 69.899 28.2624 68.26C28.2624 66.632 28.7464 65.708 29.5934 65.708C30.4404 65.708 30.9244 66.632 30.9244 68.26C30.9244 69.899 30.4404 70.812 29.5934 70.812ZM36.4791 72.11C38.2391 72.11 39.2511 70.669 39.2511 68.26C39.2511 65.851 38.2391 64.41 36.4791 64.41C34.7191 64.41 33.7071 65.851 33.7071 68.26C33.7071 70.669 34.7191 72.11 36.4791 72.11ZM36.4791 70.812C35.6321 70.812 35.1481 69.899 35.1481 68.26C35.1481 66.632 35.6321 65.708 36.4791 65.708C37.3261 65.708 37.8101 66.632 37.8101 68.26C37.8101 69.899 37.3261 70.812 36.4791 70.812Z" fill="#0E0E52" fill-opacity="0.25"/>
<path d="M0.803 149.888H3.256C3.377 149.888 3.465 149.8 3.465 149.69V148.953C3.465 148.832 3.377 148.744 3.256 148.744H0.803C0.682 148.744 0.594 148.832 0.594 148.953V149.69C0.594 149.8 0.682 149.888 0.803 149.888ZM4.13299 151.791C4.13299 151.901 4.22099 152 4.34199 152H8.67599C8.78599 152 8.88499 151.901 8.88499 151.791V151.032C8.88499 150.922 8.78599 150.823 8.67599 150.823H6.29999C6.88299 150.086 7.71899 149.052 8.19199 148.381C8.62099 147.765 8.92899 147.314 8.92899 146.599C8.92899 145.411 8.04899 144.41 6.47599 144.41C5.16699 144.41 4.30899 145.488 4.30899 145.488C4.23199 145.576 4.25399 145.708 4.31999 145.774L4.84799 146.302C4.93599 146.39 5.05699 146.39 5.14499 146.302C5.39799 146.027 5.84899 145.653 6.37699 145.653C7.16899 145.653 7.54299 146.159 7.54299 146.654C7.54299 147.028 7.32299 147.457 6.98199 147.875C6.24499 148.854 4.85899 150.658 4.13299 151.538V151.791ZM12.9284 152.11C14.6884 152.11 15.7004 150.669 15.7004 148.26C15.7004 145.851 14.6884 144.41 12.9284 144.41C11.1684 144.41 10.1564 145.851 10.1564 148.26C10.1564 150.669 11.1684 152.11 12.9284 152.11ZM12.9284 150.812C12.0814 150.812 11.5974 149.899 11.5974 148.26C11.5974 146.632 12.0814 145.708 12.9284 145.708C13.7754 145.708 14.2594 146.632 14.2594 148.26C14.2594 149.899 13.7754 150.812 12.9284 150.812ZM16.7671 151.219C16.7671 151.703 17.1741 152.11 17.6581 152.11C17.8891 152.11 18.0651 152.022 18.0761 152.022C18.0761 152.946 17.3171 153.518 17.1961 153.628C17.0861 153.716 17.0751 153.837 17.1521 153.925L17.3171 154.101C17.4161 154.2 17.4931 154.189 17.5921 154.123C17.9991 153.87 18.8461 153.1 18.8461 151.747C18.8461 150.658 18.2081 150.306 17.7351 150.306C17.1741 150.306 16.7671 150.724 16.7671 151.219ZM22.4996 152.11C24.2596 152.11 25.2716 150.669 25.2716 148.26C25.2716 145.851 24.2596 144.41 22.4996 144.41C20.7396 144.41 19.7276 145.851 19.7276 148.26C19.7276 150.669 20.7396 152.11 22.4996 152.11ZM22.4996 150.812C21.6526 150.812 21.1686 149.899 21.1686 148.26C21.1686 146.632 21.6526 145.708 22.4996 145.708C23.3466 145.708 23.8306 146.632 23.8306 148.26C23.8306 149.899 23.3466 150.812 22.4996 150.812ZM29.3854 152.11C31.1454 152.11 32.1574 150.669 32.1574 148.26C32.1574 145.851 31.1454 144.41 29.3854 144.41C27.6254 144.41 26.6134 145.851 26.6134 148.26C26.6134 150.669 27.6254 152.11 29.3854 152.11ZM29.3854 150.812C28.5384 150.812 28.0544 149.899 28.0544 148.26C28.0544 146.632 28.5384 145.708 29.3854 145.708C30.2324 145.708 30.7164 146.632 30.7164 148.26C30.7164 149.899 30.2324 150.812 29.3854 150.812ZM36.2711 152.11C38.0311 152.11 39.0431 150.669 39.0431 148.26C39.0431 145.851 38.0311 144.41 36.2711 144.41C34.5111 144.41 33.4991 145.851 33.4991 148.26C33.4991 150.669 34.5111 152.11 36.2711 152.11ZM36.2711 150.812C35.4241 150.812 34.9401 149.899 34.9401 148.26C34.9401 146.632 35.4241 145.708 36.2711 145.708C37.1181 145.708 37.6021 146.632 37.6021 148.26C37.6021 149.899 37.1181 150.812 36.2711 150.812Z" fill="#0E0E52" fill-opacity="0.25"/>
<path d="M0.803 129.888H3.256C3.377 129.888 3.465 129.8 3.465 129.69V128.953C3.465 128.832 3.377 128.744 3.256 128.744H0.803C0.682 128.744 0.594 128.832 0.594 128.953V129.69C0.594 129.8 0.682 129.888 0.803 129.888ZM5.37522 131.791C5.37522 131.901 5.46322 132 5.58422 132H6.53022C6.64022 132 6.72822 131.901 6.72822 131.791V124.729C6.72822 124.619 6.64022 124.52 6.53022 124.52H5.76022L4.17622 125.851C4.13222 125.895 4.11022 125.961 4.12122 126.049L4.18722 126.588C4.19822 126.687 4.30822 126.753 4.40722 126.731L5.37522 126.522V131.791ZM11.1666 132.11C12.9266 132.11 13.9386 130.669 13.9386 128.26C13.9386 125.851 12.9266 124.41 11.1666 124.41C9.40663 124.41 8.39463 125.851 8.39463 128.26C8.39463 130.669 9.40663 132.11 11.1666 132.11ZM11.1666 130.812C10.3196 130.812 9.83563 129.899 9.83563 128.26C9.83563 126.632 10.3196 125.708 11.1666 125.708C12.0136 125.708 12.4976 126.632 12.4976 128.26C12.4976 129.899 12.0136 130.812 11.1666 130.812ZM15.0054 131.219C15.0054 131.703 15.4124 132.11 15.8964 132.11C16.1274 132.11 16.3034 132.022 16.3144 132.022C16.3144 132.946 15.5554 133.518 15.4344 133.628C15.3244 133.716 15.3134 133.837 15.3904 133.925L15.5554 134.101C15.6544 134.2 15.7314 134.189 15.8304 134.123C16.2374 133.87 17.0844 133.1 17.0844 131.747C17.0844 130.658 16.4464 130.306 15.9734 130.306C15.4124 130.306 15.0054 130.724 15.0054 131.219ZM20.7379 132.11C22.4979 132.11 23.5099 130.669 23.5099 128.26C23.5099 125.851 22.4979 124.41 20.7379 124.41C18.9779 124.41 17.9659 125.851 17.9659 128.26C17.9659 130.669 18.9779 132.11 20.7379 132.11ZM20.7379 130.812C19.8909 130.812 19.4069 129.899 19.4069 128.26C19.4069 126.632 19.8909 125.708 20.7379 125.708C21.5849 125.708 22.0689 126.632 22.0689 128.26C22.0689 129.899 21.5849 130.812 20.7379 130.812ZM27.6237 132.11C29.3837 132.11 30.3957 130.669 30.3957 128.26C30.3957 125.851 29.3837 124.41 27.6237 124.41C25.8637 124.41 24.8517 125.851 24.8517 128.26C24.8517 130.669 25.8637 132.11 27.6237 132.11ZM27.6237 130.812C26.7767 130.812 26.2927 129.899 26.2927 128.26C26.2927 126.632 26.7767 125.708 27.6237 125.708C28.4707 125.708 28.9547 126.632 28.9547 128.26C28.9547 129.899 28.4707 130.812 27.6237 130.812ZM34.5094 132.11C36.2694 132.11 37.2814 130.669 37.2814 128.26C37.2814 125.851 36.2694 124.41 34.5094 124.41C32.7494 124.41 31.7374 125.851 31.7374 128.26C31.7374 130.669 32.7494 132.11 34.5094 132.11ZM34.5094 130.812C33.6624 130.812 33.1784 129.899 33.1784 128.26C33.1784 126.632 33.6624 125.708 34.5094 125.708C35.3564 125.708 35.8404 126.632 35.8404 128.26C35.8404 129.899 35.3564 130.812 34.5094 130.812Z" fill="#0E0E52" fill-opacity="0.25"/>
<path d="M0.803 169.888H3.256C3.377 169.888 3.465 169.8 3.465 169.69V168.953C3.465 168.832 3.377 168.744 3.256 168.744H0.803C0.682 168.744 0.594 168.832 0.594 168.953V169.69C0.594 169.8 0.682 169.888 0.803 169.888ZM4.2417 171.131C4.4837 171.417 5.1547 172.11 6.5297 172.11C8.0477 172.11 9.0597 171.208 9.0597 169.965C9.0597 168.986 8.2457 168.392 7.7287 168.172V168.139C8.2237 167.908 8.8617 167.27 8.8617 166.423C8.8617 165.191 7.7947 164.41 6.5187 164.41C5.2867 164.41 4.4507 165.378 4.4507 165.378C4.3737 165.455 4.3627 165.587 4.4507 165.664L4.9897 166.17C5.0887 166.258 5.2097 166.247 5.2867 166.159C5.4737 165.939 5.8257 165.631 6.3977 165.631C6.9587 165.631 7.4647 166.038 7.4647 166.643C7.4647 167.204 7.0027 167.655 6.1007 167.655H5.4847C5.3527 167.655 5.2757 167.732 5.2757 167.875V168.568C5.2757 168.7 5.3637 168.788 5.4847 168.788H6.1007C7.0907 168.788 7.6187 169.305 7.6187 169.877C7.6187 170.482 7.0467 170.911 6.4527 170.911C5.7817 170.911 5.1327 170.361 5.0997 170.317C5.0117 170.229 4.9127 170.229 4.8137 170.317L4.2527 170.856C4.1867 170.933 4.1757 171.054 4.2417 171.131ZM13.0358 172.11C14.7958 172.11 15.8078 170.669 15.8078 168.26C15.8078 165.851 14.7958 164.41 13.0358 164.41C11.2758 164.41 10.2638 165.851 10.2638 168.26C10.2638 170.669 11.2758 172.11 13.0358 172.11ZM13.0358 170.812C12.1888 170.812 11.7048 169.899 11.7048 168.26C11.7048 166.632 12.1888 165.708 13.0358 165.708C13.8828 165.708 14.3668 166.632 14.3668 168.26C14.3668 169.899 13.8828 170.812 13.0358 170.812ZM16.8745 171.219C16.8745 171.703 17.2815 172.11 17.7655 172.11C17.9965 172.11 18.1725 172.022 18.1835 172.022C18.1835 172.946 17.4245 173.518 17.3035 173.628C17.1935 173.716 17.1825 173.837 17.2595 173.925L17.4245 174.101C17.5235 174.2 17.6005 174.189 17.6995 174.123C18.1065 173.87 18.9535 173.1 18.9535 171.747C18.9535 170.658 18.3155 170.306 17.8425 170.306C17.2815 170.306 16.8745 170.724 16.8745 171.219ZM22.6071 172.11C24.3671 172.11 25.3791 170.669 25.3791 168.26C25.3791 165.851 24.3671 164.41 22.6071 164.41C20.8471 164.41 19.8351 165.851 19.8351 168.26C19.8351 170.669 20.8471 172.11 22.6071 172.11ZM22.6071 170.812C21.7601 170.812 21.2761 169.899 21.2761 168.26C21.2761 166.632 21.7601 165.708 22.6071 165.708C23.4541 165.708 23.9381 166.632 23.9381 168.26C23.9381 169.899 23.4541 170.812 22.6071 170.812ZM29.4928 172.11C31.2528 172.11 32.2648 170.669 32.2648 168.26C32.2648 165.851 31.2528 164.41 29.4928 164.41C27.7328 164.41 26.7208 165.851 26.7208 168.26C26.7208 170.669 27.7328 172.11 29.4928 172.11ZM29.4928 170.812C28.6458 170.812 28.1618 169.899 28.1618 168.26C28.1618 166.632 28.6458 165.708 29.4928 165.708C30.3398 165.708 30.8238 166.632 30.8238 168.26C30.8238 169.899 30.3398 170.812 29.4928 170.812ZM36.3785 172.11C38.1385 172.11 39.1505 170.669 39.1505 168.26C39.1505 165.851 38.1385 164.41 36.3785 164.41C34.6185 164.41 33.6065 165.851 33.6065 168.26C33.6065 170.669 34.6185 172.11 36.3785 172.11ZM36.3785 170.812C35.5315 170.812 35.0475 169.899 35.0475 168.26C35.0475 166.632 35.5315 165.708 36.3785 165.708C37.2255 165.708 37.7095 166.632 37.7095 168.26C37.7095 169.899 37.2255 170.812 36.3785 170.812Z" fill="#0E0E52" fill-opacity="0.25"/>
<path d="M0.803 209.888H3.256C3.377 209.888 3.465 209.8 3.465 209.69V208.953C3.465 208.832 3.377 208.744 3.256 208.744H0.803C0.682 208.744 0.594 208.832 0.594 208.953V209.69C0.594 209.8 0.682 209.888 0.803 209.888ZM4.45122 211.197C4.72622 211.527 5.44122 212.11 6.61822 212.11C8.13622 212.11 9.28022 210.966 9.28022 209.591C9.28022 208.15 8.32322 207.149 6.76122 207.149H5.81522V205.686H8.25722C8.37822 205.686 8.46622 205.587 8.46622 205.477V204.729C8.46622 204.619 8.37822 204.52 8.25722 204.52H4.78122C4.66022 204.52 4.57222 204.619 4.57222 204.729V207.974C4.57222 208.15 4.69322 208.359 4.91322 208.359H6.60722C7.47622 208.359 7.93822 208.909 7.93822 209.591C7.93822 210.284 7.41022 210.889 6.66222 210.889C5.92522 210.889 5.28722 210.317 5.24322 210.273C5.15522 210.196 5.05622 210.218 4.97922 210.284L4.42922 210.823C4.29722 210.955 4.30822 211.032 4.45122 211.197ZM13.0787 212.11C14.8387 212.11 15.8507 210.669 15.8507 208.26C15.8507 205.851 14.8387 204.41 13.0787 204.41C11.3187 204.41 10.3067 205.851 10.3067 208.26C10.3067 210.669 11.3187 212.11 13.0787 212.11ZM13.0787 210.812C12.2317 210.812 11.7477 209.899 11.7477 208.26C11.7477 206.632 12.2317 205.708 13.0787 205.708C13.9257 205.708 14.4097 206.632 14.4097 208.26C14.4097 209.899 13.9257 210.812 13.0787 210.812ZM16.9175 211.219C16.9175 211.703 17.3245 212.11 17.8085 212.11C18.0395 212.11 18.2155 212.022 18.2265 212.022C18.2265 212.946 17.4675 213.518 17.3465 213.628C17.2365 213.716 17.2255 213.837 17.3025 213.925L17.4675 214.101C17.5665 214.2 17.6435 214.189 17.7425 214.123C18.1495 213.87 18.9965 213.1 18.9965 211.747C18.9965 210.658 18.3585 210.306 17.8855 210.306C17.3245 210.306 16.9175 210.724 16.9175 211.219ZM22.65 212.11C24.41 212.11 25.422 210.669 25.422 208.26C25.422 205.851 24.41 204.41 22.65 204.41C20.89 204.41 19.878 205.851 19.878 208.26C19.878 210.669 20.89 212.11 22.65 212.11ZM22.65 210.812C21.803 210.812 21.319 209.899 21.319 208.26C21.319 206.632 21.803 205.708 22.65 205.708C23.497 205.708 23.981 206.632 23.981 208.26C23.981 209.899 23.497 210.812 22.65 210.812ZM29.5358 212.11C31.2958 212.11 32.3078 210.669 32.3078 208.26C32.3078 205.851 31.2958 204.41 29.5358 204.41C27.7758 204.41 26.7638 205.851 26.7638 208.26C26.7638 210.669 27.7758 212.11 29.5358 212.11ZM29.5358 210.812C28.6888 210.812 28.2048 209.899 28.2048 208.26C28.2048 206.632 28.6888 205.708 29.5358 205.708C30.3828 205.708 30.8668 206.632 30.8668 208.26C30.8668 209.899 30.3828 210.812 29.5358 210.812ZM36.4215 212.11C38.1815 212.11 39.1935 210.669 39.1935 208.26C39.1935 205.851 38.1815 204.41 36.4215 204.41C34.6615 204.41 33.6495 205.851 33.6495 208.26C33.6495 210.669 34.6615 212.11 36.4215 212.11ZM36.4215 210.812C35.5745 210.812 35.0905 209.899 35.0905 208.26C35.0905 206.632 35.5745 205.708 36.4215 205.708C37.2685 205.708 37.7525 206.632 37.7525 208.26C37.7525 209.899 37.2685 210.812 36.4215 210.812Z" fill="#0E0E52" fill-opacity="0.25"/>
<path d="M0.803 189.888H3.256C3.377 189.888 3.465 189.8 3.465 189.69V188.953C3.465 188.832 3.377 188.744 3.256 188.744H0.803C0.682 188.744 0.594 188.832 0.594 188.953V189.69C0.594 189.8 0.682 189.888 0.803 189.888ZM4.44555 190.405H7.84455V191.791C7.84455 191.901 7.94355 192 8.05355 192H8.96655C9.07655 192 9.17555 191.901 9.17555 191.791L9.16455 190.383H10.0445C10.1655 190.383 10.2535 190.284 10.2535 190.174V189.492C10.2535 189.382 10.1655 189.294 10.0445 189.294H9.16455V184.608C9.16455 184.487 9.06555 184.399 8.95555 184.399H8.36155C8.28455 184.399 8.22955 184.432 8.19655 184.465L4.23655 189.283V190.196C4.23655 190.306 4.32455 190.405 4.44555 190.405ZM5.68855 189.261L7.88855 186.621V189.261H5.68855ZM14.067 192.11C15.827 192.11 16.839 190.669 16.839 188.26C16.839 185.851 15.827 184.41 14.067 184.41C12.307 184.41 11.295 185.851 11.295 188.26C11.295 190.669 12.307 192.11 14.067 192.11ZM14.067 190.812C13.22 190.812 12.736 189.899 12.736 188.26C12.736 186.632 13.22 185.708 14.067 185.708C14.914 185.708 15.398 186.632 15.398 188.26C15.398 189.899 14.914 190.812 14.067 190.812ZM17.9058 191.219C17.9058 191.703 18.3128 192.11 18.7968 192.11C19.0278 192.11 19.2038 192.022 19.2148 192.022C19.2148 192.946 18.4558 193.518 18.3348 193.628C18.2248 193.716 18.2138 193.837 18.2908 193.925L18.4558 194.101C18.5548 194.2 18.6318 194.189 18.7308 194.123C19.1378 193.87 19.9848 193.1 19.9848 191.747C19.9848 190.658 19.3468 190.306 18.8738 190.306C18.3128 190.306 17.9058 190.724 17.9058 191.219ZM23.6383 192.11C25.3983 192.11 26.4103 190.669 26.4103 188.26C26.4103 185.851 25.3983 184.41 23.6383 184.41C21.8783 184.41 20.8663 185.851 20.8663 188.26C20.8663 190.669 21.8783 192.11 23.6383 192.11ZM23.6383 190.812C22.7913 190.812 22.3073 189.899 22.3073 188.26C22.3073 186.632 22.7913 185.708 23.6383 185.708C24.4853 185.708 24.9693 186.632 24.9693 188.26C24.9693 189.899 24.4853 190.812 23.6383 190.812ZM30.5241 192.11C32.2841 192.11 33.2961 190.669 33.2961 188.26C33.2961 185.851 32.2841 184.41 30.5241 184.41C28.7641 184.41 27.7521 185.851 27.7521 188.26C27.7521 190.669 28.7641 192.11 30.5241 192.11ZM30.5241 190.812C29.6771 190.812 29.1931 189.899 29.1931 188.26C29.1931 186.632 29.6771 185.708 30.5241 185.708C31.3711 185.708 31.8551 186.632 31.8551 188.26C31.8551 189.899 31.3711 190.812 30.5241 190.812ZM37.4098 192.11C39.1698 192.11 40.1818 190.669 40.1818 188.26C40.1818 185.851 39.1698 184.41 37.4098 184.41C35.6498 184.41 34.6378 185.851 34.6378 188.26C34.6378 190.669 35.6498 192.11 37.4098 192.11ZM37.4098 190.812C36.5628 190.812 36.0788 189.899 36.0788 188.26C36.0788 186.632 36.5628 185.708 37.4098 185.708C38.2568 185.708 38.7408 186.632 38.7408 188.26C38.7408 189.899 38.2568 190.812 37.4098 190.812Z" fill="#0E0E52" fill-opacity="0.25"/>
<path d="M512.187 233H513.144C513.32 233 513.419 232.89 513.463 232.78L514.002 231.592H517.291L517.83 232.78C517.907 232.934 517.984 233 518.149 233H519.106C519.271 233 519.359 232.857 519.293 232.714L515.905 225.311C515.872 225.245 515.828 225.19 515.718 225.19H515.608C515.509 225.19 515.454 225.245 515.421 225.311L512 232.714C511.934 232.857 512.022 233 512.187 233ZM514.541 230.371L515.619 227.951H515.652L516.752 230.371H514.541ZM519.9 232.791C519.9 232.901 519.999 233 520.109 233H520.538C520.637 233 520.714 232.912 520.747 232.791L520.857 232.45C520.857 232.45 521.374 233.11 522.298 233.11C523.497 233.11 524.41 232.065 524.41 230.8C524.41 229.513 523.541 228.49 522.232 228.49C521.792 228.49 521.451 228.611 521.253 228.688V225.509C521.253 225.399 521.154 225.3 521.044 225.3H520.109C519.999 225.3 519.9 225.399 519.9 225.509V232.791ZM521.209 231.207V229.931C521.209 229.931 521.517 229.678 522.067 229.678C522.683 229.678 523.134 230.184 523.134 230.8C523.134 231.416 522.716 231.922 522.133 231.922C521.55 231.922 521.286 231.471 521.209 231.207ZM525.4 232.791C525.4 232.901 525.499 233 525.609 233H526.456C526.61 233 526.709 232.945 526.709 232.791V230.129C526.786 229.975 527.05 229.678 527.49 229.678C527.611 229.678 527.776 229.733 527.809 229.744C527.897 229.788 528.007 229.744 528.062 229.645L528.469 228.93C528.601 228.655 528.139 228.49 527.622 228.49C526.94 228.49 526.533 228.952 526.379 229.172L526.225 228.743C526.192 228.655 526.126 228.6 526.027 228.6H525.609C525.499 228.6 525.4 228.688 525.4 228.809V232.791Z" fill="#0E0E52" fill-opacity="0.25"/>
<path d="M550.495 232.747C550.473 232.901 550.561 233 550.704 233H551.694C551.793 233 551.881 232.912 551.892 232.835L552.53 228.666C552.541 228.666 552.563 228.666 552.563 228.666L554.51 232.989C554.543 233.055 554.598 233.11 554.697 233.11H554.895C554.994 233.11 555.06 233.055 555.082 232.989L557.007 228.666C557.007 228.666 557.029 228.666 557.04 228.666L557.689 232.835C557.711 232.912 557.799 233 557.898 233H558.899C559.042 233 559.13 232.901 559.097 232.747L557.799 225.355C557.788 225.267 557.722 225.19 557.601 225.19H557.425C557.326 225.19 557.271 225.234 557.238 225.3L554.818 230.492C554.807 230.492 554.807 230.492 554.785 230.492L552.365 225.3C552.332 225.234 552.266 225.19 552.178 225.19H552.002C551.881 225.19 551.815 225.267 551.804 225.355L550.495 232.747ZM559.837 231.603C559.837 232.538 560.442 233.11 561.322 233.11C562.004 233.11 562.411 232.78 562.664 232.549L562.796 232.846C562.851 232.967 562.906 233 562.983 233H563.379C563.489 233 563.588 232.901 563.588 232.791V230.404C563.588 229.205 563.269 228.49 561.894 228.49C561.19 228.49 560.486 228.666 560.398 228.699C560.299 228.732 560.211 228.809 560.244 228.974L560.343 229.546C560.365 229.689 560.442 229.788 560.596 229.744C560.849 229.667 561.421 229.579 561.828 229.579C562.235 229.579 562.411 229.777 562.4 230.338C562.4 230.338 562.037 230.217 561.597 230.217C560.475 230.217 559.837 230.822 559.837 231.603ZM561.047 231.603C561.047 231.251 561.333 231.009 561.762 231.009C562.081 231.009 562.378 231.141 562.378 231.141V231.746C562.312 231.878 561.971 232.175 561.619 232.175C561.278 232.175 561.047 231.933 561.047 231.603ZM566.071 232.692L564.509 236.003C564.432 236.157 564.531 236.3 564.696 236.3H565.642C565.73 236.3 565.796 236.234 565.829 236.168L569.195 228.886C569.272 228.743 569.184 228.6 569.008 228.6H568.128C567.996 228.6 567.919 228.611 567.864 228.721L566.764 231.207H566.753L565.642 228.721C565.609 228.655 565.554 228.6 565.455 228.6H564.465C564.3 228.6 564.212 228.743 564.278 228.886L566.071 232.692Z" fill="#0E0E52" fill-opacity="0.25"/>
<path d="M93.824 232.307C94.011 232.538 94.539 233.11 95.496 233.11C96.783 233.11 97.806 232.23 97.806 230.701V225.509C97.806 225.399 97.718 225.3 97.597 225.3H96.563C96.442 225.3 96.354 225.399 96.354 225.509V230.701C96.354 231.46 95.903 231.812 95.474 231.812C95.111 231.812 94.891 231.614 94.748 231.46C94.649 231.361 94.539 231.339 94.418 231.449L93.846 232.032C93.78 232.109 93.769 232.219 93.824 232.307ZM99.084 230.943C99.084 232.065 99.579 233.11 100.943 233.11C101.812 233.11 102.219 232.648 102.417 232.472L102.549 232.835C102.582 232.923 102.648 233 102.758 233H103.165C103.275 233 103.374 232.901 103.374 232.791V228.809C103.374 228.688 103.275 228.6 103.165 228.6H102.329C102.153 228.6 102.087 228.644 102.087 228.809V231.097C102.021 231.493 101.669 231.922 101.207 231.922C100.701 231.922 100.404 231.559 100.404 230.976V228.809C100.404 228.688 100.305 228.6 100.195 228.6H99.293C99.183 228.6 99.084 228.688 99.084 228.809V230.943ZM104.693 232.791C104.693 232.901 104.792 233 104.902 233H105.716C105.925 233 105.991 232.945 105.991 232.791V230.371C106.101 230.074 106.453 229.678 107.025 229.678C107.553 229.678 107.85 230.041 107.85 230.613V232.791C107.85 232.901 107.938 233 108.059 233H108.961C109.071 233 109.17 232.901 109.17 232.791V230.679C109.17 229.535 108.609 228.49 107.212 228.49C106.365 228.49 105.826 228.963 105.661 229.139L105.507 228.732C105.474 228.655 105.419 228.6 105.32 228.6H104.902C104.792 228.6 104.693 228.688 104.693 228.809V232.791Z" fill="#0E0E52" fill-opacity="0.25"/>
<path d="M135.824 232.307C136.011 232.538 136.539 233.11 137.496 233.11C138.783 233.11 139.806 232.23 139.806 230.701V225.509C139.806 225.399 139.718 225.3 139.597 225.3H138.563C138.442 225.3 138.354 225.399 138.354 225.509V230.701C138.354 231.46 137.903 231.812 137.474 231.812C137.111 231.812 136.891 231.614 136.748 231.46C136.649 231.361 136.539 231.339 136.418 231.449L135.846 232.032C135.78 232.109 135.769 232.219 135.824 232.307ZM141.084 230.943C141.084 232.065 141.579 233.11 142.943 233.11C143.812 233.11 144.219 232.648 144.417 232.472L144.549 232.835C144.582 232.923 144.648 233 144.758 233H145.165C145.275 233 145.374 232.901 145.374 232.791V228.809C145.374 228.688 145.275 228.6 145.165 228.6H144.329C144.153 228.6 144.087 228.644 144.087 228.809V231.097C144.021 231.493 143.669 231.922 143.207 231.922C142.701 231.922 142.404 231.559 142.404 230.976V228.809C142.404 228.688 142.305 228.6 142.195 228.6H141.293C141.183 228.6 141.084 228.688 141.084 228.809V230.943ZM146.693 232.791C146.693 232.901 146.792 233 146.902 233H147.826C147.936 233 148.035 232.901 148.035 232.791V225.509C148.035 225.399 147.936 225.3 147.826 225.3H146.902C146.792 225.3 146.693 225.399 146.693 225.509V232.791Z" fill="#0E0E52" fill-opacity="0.25"/>
<path d="M176.187 233H177.144C177.32 233 177.419 232.89 177.463 232.78L178.002 231.592H181.291L181.83 232.78C181.907 232.934 181.984 233 182.149 233H183.106C183.271 233 183.359 232.857 183.293 232.714L179.905 225.311C179.872 225.245 179.828 225.19 179.718 225.19H179.608C179.509 225.19 179.454 225.245 179.421 225.311L176 232.714C175.934 232.857 176.022 233 176.187 233ZM178.541 230.371L179.619 227.951H179.652L180.752 230.371H178.541ZM183.492 232.67C183.492 233.473 184.13 233.77 184.317 233.825V233.858C184.207 233.924 183.657 234.243 183.657 234.903C183.657 235.607 184.273 236.41 185.901 236.41C187.496 236.41 188.31 235.552 188.31 234.54C188.31 233.572 187.496 233 186.495 233H185.087C184.845 233 184.647 232.857 184.647 232.626C184.647 232.362 184.9 232.208 185.054 232.208C185.23 232.208 185.516 232.296 185.934 232.296C187.089 232.296 187.815 231.438 187.815 230.569C187.815 229.788 187.375 229.447 187.375 229.447L187.991 229.249C188.068 229.227 188.112 229.139 188.112 229.062V228.699C188.112 228.578 188.024 228.49 187.903 228.49H185.901C184.812 228.49 183.987 229.381 183.987 230.404C183.987 231.064 184.317 231.438 184.317 231.438C184.317 231.438 183.492 231.812 183.492 232.67ZM185.164 230.459C185.164 229.997 185.494 229.667 185.934 229.667C186.385 229.667 186.693 229.997 186.693 230.459C186.693 230.921 186.385 231.251 185.934 231.251C185.494 231.251 185.164 230.921 185.164 230.459ZM184.922 234.661C184.922 234.32 185.263 234.166 185.395 234.122C185.626 234.089 185.868 234.078 186.11 234.078C186.759 234.078 186.913 234.419 186.913 234.617C186.913 235.035 186.506 235.31 185.89 235.31C185.296 235.31 184.922 235.046 184.922 234.661ZM188.694 230.789C188.694 232.054 189.706 233.11 190.949 233.11C192.192 233.11 193.204 232.054 193.204 230.789C193.204 229.546 192.192 228.49 190.949 228.49C189.706 228.49 188.694 229.546 188.694 230.789ZM189.893 230.789C189.893 230.173 190.355 229.678 190.949 229.678C191.532 229.678 192.005 230.173 192.005 230.789C192.005 231.416 191.532 231.922 190.949 231.922C190.355 231.922 189.893 231.416 189.893 230.789Z" fill="#0E0E52" fill-opacity="0.25"/>
<path d="M220.605 232.252C220.825 232.461 221.639 233.11 223.025 233.11C224.576 233.11 225.555 232.065 225.555 230.932C225.555 229.513 224.323 228.875 223.256 228.446C222.365 228.083 221.958 227.731 221.958 227.214C221.958 226.862 222.299 226.444 222.926 226.444C223.531 226.444 224.367 226.994 224.455 227.049C224.587 227.137 224.752 227.049 224.84 226.917L225.258 226.29C225.335 226.18 225.302 225.993 225.192 225.927C224.972 225.762 224.114 225.19 222.992 225.19C221.243 225.19 220.517 226.323 220.517 227.302C220.517 228.6 221.551 229.26 222.585 229.678C223.509 230.052 223.982 230.437 223.982 230.998C223.982 231.471 223.553 231.845 222.981 231.845C222.266 231.845 221.375 231.196 221.32 231.163C221.221 231.086 221.034 231.086 220.946 231.24L220.55 231.922C220.451 232.098 220.506 232.153 220.605 232.252ZM226.227 230.8C226.227 232.065 227.162 233.11 228.482 233.11C229.197 233.11 229.758 232.846 230.121 232.505C230.231 232.417 230.209 232.296 230.132 232.219L229.681 231.702C229.604 231.614 229.505 231.636 229.395 231.702C229.197 231.845 228.878 231.977 228.537 231.977C227.899 231.977 227.514 231.471 227.481 231.02H230.297C230.396 231.02 230.495 230.943 230.506 230.833C230.517 230.756 230.528 230.613 230.528 230.536C230.528 229.348 229.604 228.49 228.471 228.49C227.162 228.49 226.227 229.557 226.227 230.8ZM227.58 230.25C227.635 229.832 227.998 229.502 228.438 229.502C228.856 229.502 229.208 229.843 229.241 230.25H227.58ZM232.809 232.868C232.963 232.956 233.359 233.11 233.788 233.11C234.976 233.11 235.966 232.098 235.966 230.8C235.966 229.535 235.053 228.49 233.843 228.49C233.128 228.49 232.589 228.875 232.424 229.095L232.281 228.732C232.248 228.644 232.171 228.6 232.094 228.6H231.665C231.555 228.6 231.456 228.688 231.456 228.809V236.091C231.456 236.201 231.555 236.3 231.665 236.3H232.545C232.743 236.3 232.809 236.223 232.809 236.091V232.868ZM232.754 231.669V230.349C232.82 230.118 233.095 229.678 233.656 229.678C234.261 229.678 234.679 230.184 234.679 230.8C234.679 231.416 234.228 231.922 233.612 231.922C233.062 231.922 232.754 231.669 232.754 231.669Z" fill="#0E0E52" fill-opacity="0.25"/>
<path d="M259.451 229.161C259.451 231.361 261.2 233.11 263.4 233.11C265.6 233.11 267.36 231.361 267.36 229.161C267.36 226.961 265.6 225.19 263.4 225.19C261.2 225.19 259.451 226.961 259.451 229.161ZM260.881 229.161C260.881 227.775 262.014 226.62 263.4 226.62C264.786 226.62 265.93 227.775 265.93 229.161C265.93 230.547 264.786 231.68 263.4 231.68C262.014 231.68 260.881 230.547 260.881 229.161ZM267.977 230.8C267.977 232.12 269.066 233.11 270.309 233.11C271.09 233.11 271.673 232.769 272.047 232.186C272.124 232.076 272.08 231.966 271.97 231.878L271.497 231.471C271.409 231.405 271.299 231.427 271.222 231.504C271.024 231.691 270.815 231.922 270.342 231.922C269.748 231.922 269.275 231.427 269.275 230.8C269.275 230.184 269.759 229.678 270.353 229.678C270.661 229.678 270.936 229.832 271.112 230.03C271.189 230.096 271.288 230.151 271.387 230.063L271.893 229.579C272.003 229.502 272.025 229.37 271.948 229.271C271.53 228.765 271.002 228.49 270.32 228.49C269.088 228.49 267.977 229.502 267.977 230.8ZM273.233 231.691C273.233 232.582 273.607 233.11 274.454 233.11C274.993 233.11 275.708 232.857 275.763 232.824C275.873 232.78 275.928 232.67 275.884 232.56L275.664 231.867C275.631 231.757 275.543 231.702 275.422 231.746C275.301 231.79 275.07 231.867 274.883 231.867C274.707 231.867 274.542 231.823 274.542 231.515V229.755H275.51C275.631 229.755 275.719 229.656 275.719 229.546V228.809C275.719 228.688 275.631 228.6 275.51 228.6H274.542V227.368C274.542 227.258 274.454 227.159 274.344 227.159L273.442 227.17C273.332 227.17 273.233 227.269 273.233 227.379V228.6H272.859C272.749 228.6 272.661 228.688 272.661 228.809V229.546C272.661 229.656 272.749 229.755 272.859 229.755H273.233V231.691Z" fill="#0E0E52" fill-opacity="0.25"/>
<path d="M301.001 232.791C301.001 232.901 301.1 233 301.21 233H302.211C302.332 233 302.42 232.901 302.42 232.791V228.061H302.431L307.029 233.11H307.293C307.403 233.11 307.502 233.022 307.502 232.912V225.509C307.502 225.399 307.403 225.3 307.293 225.3H306.281C306.16 225.3 306.072 225.399 306.072 225.509V230.052H306.061L301.485 225.19H301.21C301.1 225.19 301.001 225.278 301.001 225.388V232.791ZM308.58 230.789C308.58 232.054 309.592 233.11 310.835 233.11C312.078 233.11 313.09 232.054 313.09 230.789C313.09 229.546 312.078 228.49 310.835 228.49C309.592 228.49 308.58 229.546 308.58 230.789ZM309.779 230.789C309.779 230.173 310.241 229.678 310.835 229.678C311.418 229.678 311.891 230.173 311.891 230.789C311.891 231.416 311.418 231.922 310.835 231.922C310.241 231.922 309.779 231.416 309.779 230.789ZM315.485 233C315.518 233.055 315.573 233.11 315.672 233.11H315.727C315.826 233.11 315.881 233.055 315.914 233L317.927 228.864C318.004 228.721 317.938 228.6 317.773 228.6H316.915C316.794 228.6 316.706 228.611 316.651 228.721L315.705 230.767C315.705 230.767 315.694 230.767 315.683 230.767L314.792 228.721C314.759 228.655 314.704 228.6 314.594 228.6H313.637C313.472 228.6 313.417 228.721 313.483 228.864L315.485 233Z" fill="#0E0E52" fill-opacity="0.25"/>
<path d="M551 98C551 92.4772 555.477 88 561 88V88C566.523 88 571 92.4772 571 98V109H551V98Z" fill="#050DCA" fill-opacity="0.75"/>
<path d="M428 43C428 37.4772 432.477 33 438 33V33C443.523 33 448 37.4772 448 43V109H428V43Z" fill="#050DCA" fill-opacity="0.75"/>
<path d="M94 35C94 29.4772 98.4772 25 104 25V25C109.523 25 114 29.4772 114 35V109H94V35Z" fill="#050DCA" fill-opacity="0.75"/>
<path d="M136 69C136 63.4772 140.477 59 146 59V59C151.523 59 156 63.4772 156 69V109H136V69Z" fill="#050DCA" fill-opacity="0.75"/>
<path d="M176 82C176 76.4772 180.477 72 186 72V72C191.523 72 196 76.4772 196 82V109H176V82Z" fill="#050DCA" fill-opacity="0.75"/>
<path d="M219 59C219 53.4772 223.477 49 229 49V49C234.523 49 239 53.4772 239 59V109H219V59Z" fill="#050DCA" fill-opacity="0.75"/>
<path d="M260 21C260 15.4772 264.477 11 270 11V11C275.523 11 280 15.4772 280 21V109H260V21Z" fill="#050DCA" fill-opacity="0.75"/>
<path d="M302 43C302 37.4772 306.477 33 312 33V33C317.523 33 322 37.4772 322 43V109H302V43Z" fill="#050DCA" fill-opacity="0.75"/>
<path d="M343 86C343 80.4772 347.477 76 353 76V76C358.523 76 363 80.4772 363 86V109H343V86Z" fill="#050DCA" fill-opacity="0.75"/>
<path d="M468 21C468 15.4772 472.477 11 478 11V11C483.523 11 488 15.4772 488 21V109H468V21Z" fill="#050DCA" fill-opacity="0.75"/>
<path d="M510 43C510 37.4772 514.477 33 520 33V33C525.523 33 530 37.4772 530 43V109H510V43Z" fill="#050DCA" fill-opacity="0.75"/>
<path d="M386 14C386 8.47715 390.477 4 396 4V4C401.523 4 406 8.47715 406 14V109H386V14Z" fill="#050DCA" fill-opacity="0.75"/>
</svg>
