<svg width="315" height="214" viewBox="0 0 315 214" fill="none" xmlns="http://www.w3.org/2000/svg">
<g filter="url(#filter0_d_429_171)">
<path d="M4 25C4 11.1929 15.1929 0 29 0H286C299.807 0 311 11.1929 311 25V181C311 194.807 299.807 206 286 206H29C15.1929 206 4 194.807 4 181V25Z" fill="#050DCA" fill-opacity="0.75" shape-rendering="crispEdges"/>
</g>
<g filter="url(#filter1_d_429_171)">
<path d="M285 0.00402296C305.8 0.00402115 311 17.3374 311 26.004L311 77.5C302.333 62.3333 253.363 14.682 202 55.0041C148.916 96.6778 134.228 92.0789 77.8323 74.4212L76.5 74.0041C31.7997 60.011 8 96.5041 4 112.504L3.99999 26.004C3.99999 4.80404 21.3333 -0.162618 30 0.00404526L285 0.00402296Z" fill="#0E0E52"/>
</g>
<path d="M30.064 25.328C31.472 25.328 32.624 24.208 32.624 22.8C32.624 21.392 31.472 20.24 30.064 20.24C28.656 20.24 27.536 21.392 27.536 22.8C27.536 24.208 28.656 25.328 30.064 25.328ZM27.728 41.392C27.728 41.712 28.016 42 28.336 42H31.856C32.176 42 32.464 41.712 32.464 41.392V29.808C32.464 29.456 32.176 29.2 31.856 29.2H28.336C28.016 29.2 27.728 29.456 27.728 29.808V41.392ZM36.4275 37.872C36.4275 40.784 37.8355 42.32 40.2675 42.32C41.8675 42.32 44.1395 41.616 44.1395 41.616C44.4595 41.52 44.6195 41.168 44.5555 40.88L43.8515 38.224C43.7555 37.872 43.4675 37.744 43.1475 37.808C42.8275 37.872 42.3475 38.032 41.8995 38.032C41.5155 38.032 41.0355 37.968 41.0355 37.264V33.264H43.4035C43.7555 33.264 44.0115 32.976 44.0115 32.656V29.808C44.0115 29.456 43.7555 29.2 43.4035 29.2H41.0355V25.648C41.0355 25.328 40.7795 25.04 40.4595 25.04H37.0355C36.7155 25.04 36.4275 25.328 36.4275 25.648V29.2H35.5955C35.2755 29.2 35.0195 29.456 35.0195 29.808V32.656C35.0195 32.976 35.2755 33.264 35.5955 33.264H36.4275V37.872ZM46.9155 41.392C46.9155 41.712 47.2035 42 47.5235 42H49.0275C49.3475 42 49.5715 41.712 49.6995 41.36L50.0835 40.304C50.0835 40.304 51.5555 42.32 54.3715 42.32C57.9875 42.32 60.7075 39.28 60.7075 35.6C60.7075 31.088 57.7635 28.88 54.3395 28.88C53.2515 28.88 52.0675 29.264 51.6835 29.488V20.208C51.6835 19.888 51.3955 19.6 51.0755 19.6H47.5235C47.2035 19.6 46.9155 19.888 46.9155 20.208V41.392ZM51.1715 35.568C51.1715 34.128 52.2595 33.008 53.7315 33.008C55.2035 33.008 56.3235 34.128 56.3235 35.568C56.3235 37.04 55.2035 38.192 53.7315 38.192C52.2595 38.192 51.1715 37.04 51.1715 35.568ZM62.364 38.096C62.364 40.624 64.252 42.32 66.78 42.32C68.796 42.32 69.916 41.392 70.652 40.72L71.1 41.584C71.26 41.936 71.484 42 71.676 42H73.084C73.404 42 73.692 41.712 73.692 41.392V34.32C73.692 30.544 72.252 28.88 68.284 28.88C66.556 28.88 64.316 29.264 64.028 29.36C63.74 29.456 63.452 29.68 63.548 30.224L63.836 32.24C63.9 32.72 64.124 33.072 64.604 32.912C65.436 32.656 66.94 32.432 67.804 32.432C69.34 32.432 69.532 33.072 69.532 34.32C69.532 34.32 68.508 33.808 67.068 33.808C64.156 33.808 62.364 35.632 62.364 38.096ZM66.524 37.776C66.524 37.04 67.132 36.432 67.9 36.432C68.668 36.432 69.276 37.04 69.308 37.776C69.308 38.544 68.668 39.184 67.9 39.184C67.132 39.184 66.524 38.544 66.524 37.776ZM76.9468 41.392C76.9468 41.712 77.2348 42 77.5548 42H80.9148C81.3628 42 81.4908 41.68 81.4908 41.392V35.248C81.4908 33.936 82.6428 33.008 83.9228 33.008C85.3628 33.008 86.0988 34.128 86.0988 35.408V41.392C86.0988 41.712 86.3548 42 86.7068 42H90.1308C90.4508 42 90.7388 41.712 90.7388 41.392V35.568C90.7388 31.92 88.6268 28.88 84.6588 28.88C82.3228 28.88 80.8508 30.096 80.1468 30.864L79.6348 29.584C79.5388 29.36 79.2508 29.2 79.0588 29.2H77.5548C77.2348 29.2 76.9468 29.456 76.9468 29.808V41.392ZM93.853 41.392C93.853 41.712 94.141 42 94.461 42H98.013C98.333 42 98.621 41.712 98.621 41.392V36.176L102.973 41.744C103.069 41.872 103.325 42 103.453 42H107.773C108.317 42 108.605 41.456 108.253 41.04L103.133 35.088L107.357 30.192C107.709 29.744 107.421 29.2 106.877 29.2H103.293C102.909 29.2 102.685 29.392 102.493 29.584L98.621 34.064V20.208C98.621 19.888 98.333 19.6 98.013 19.6H94.461C94.141 19.6 93.853 19.888 93.853 20.208V41.392Z" fill="white"/>
<path d="M32.7589 180.196C32.7309 180.378 32.8569 180.504 33.0249 180.504H34.6769C34.8169 180.504 34.9289 180.392 34.9429 180.28L35.5589 175.954H35.5869L37.9529 180.49C37.9949 180.574 38.1069 180.644 38.1909 180.644H38.4429C38.5129 180.644 38.6389 180.574 38.6809 180.49L41.0329 175.954H41.0609L41.6909 180.28C41.7049 180.392 41.8309 180.504 41.9569 180.504H43.6089C43.7769 180.504 43.9029 180.378 43.8749 180.196L42.2929 170.788C42.2789 170.662 42.1529 170.564 42.0409 170.564H41.8169C41.7469 170.564 41.6209 170.62 41.5789 170.704L38.3309 176.752H38.3029L35.0549 170.704C35.0129 170.62 34.8869 170.564 34.8169 170.564H34.5929C34.4809 170.564 34.3549 170.662 34.3409 170.788L32.7589 180.196ZM44.6439 180.504H46.1839C46.4639 180.504 46.6179 180.336 46.6879 180.168L47.1919 179.048H50.9999L51.5039 180.154C51.6299 180.42 51.7419 180.504 51.9939 180.504H53.5479C53.7579 180.504 53.8699 180.322 53.7859 180.14L49.4039 170.718C49.3619 170.634 49.2639 170.564 49.1659 170.564H49.0259C48.9279 170.564 48.8299 170.634 48.7879 170.718L44.4059 180.14C44.3219 180.322 44.4339 180.504 44.6439 180.504ZM48.0319 177.144L49.0819 174.834H49.0959L50.1599 177.144H48.0319ZM54.9355 180.238C54.9355 180.378 55.0475 180.504 55.2015 180.504H56.8675C57.0075 180.504 57.1335 180.378 57.1335 180.238V176.668H58.0995L59.9615 180.378C59.9895 180.434 60.0735 180.504 60.1855 180.504H62.0475C62.2855 180.504 62.3835 180.28 62.2855 180.098L60.3675 176.542C61.5855 176.052 62.4395 175.016 62.4395 173.728C62.4395 172.062 61.0675 170.704 59.3875 170.704H55.2015C55.0475 170.704 54.9355 170.83 54.9355 170.97V180.238ZM57.1335 174.89V172.706H59.2055C59.7795 172.706 60.2695 173.182 60.2695 173.77C60.2695 174.358 59.7795 174.89 59.2055 174.89H57.1335ZM65.5744 180.238C65.5744 180.378 65.7004 180.504 65.8404 180.504H67.5204C67.6604 180.504 67.7864 180.378 67.7864 180.238V172.762H69.7884C69.9424 172.762 70.0544 172.636 70.0544 172.496V170.97C70.0544 170.83 69.9424 170.704 69.7884 170.704H63.5724C63.4184 170.704 63.3064 170.83 63.3064 170.97V172.496C63.3064 172.636 63.4184 172.762 63.5724 172.762H65.5744V180.238ZM71.4511 180.238C71.4511 180.378 71.5771 180.504 71.7171 180.504H73.3971C73.5371 180.504 73.6631 180.378 73.6631 180.238V170.97C73.6631 170.83 73.5371 170.704 73.3971 170.704H71.7171C71.5771 170.704 71.4511 170.83 71.4511 170.97V180.238ZM76.0722 180.238C76.0722 180.378 76.1982 180.504 76.3382 180.504H78.0042C78.1582 180.504 78.2702 180.378 78.2702 180.238V175.016H78.2842L83.8142 180.574C83.8422 180.602 83.9542 180.644 83.9962 180.644H84.2202C84.3602 180.644 84.4862 180.532 84.4862 180.392V170.97C84.4862 170.83 84.3602 170.704 84.2202 170.704H82.5402C82.3862 170.704 82.2742 170.83 82.2742 170.97V175.94H82.2602L76.6742 170.564H76.3242C76.1842 170.564 76.0582 170.676 76.0582 170.816L76.0722 180.238ZM89.2902 175.618C89.2902 178.418 91.5302 180.63 94.3162 180.63C96.3462 180.63 97.7882 179.72 97.7882 179.72C97.8442 179.678 97.9002 179.566 97.9002 179.496L97.8862 175.73C97.8862 175.59 97.7742 175.464 97.6342 175.464H94.8202C94.6662 175.464 94.5542 175.576 94.5542 175.73V177.116C94.5542 177.256 94.6662 177.368 94.8202 177.368H95.7022V178.18C95.2822 178.348 94.8622 178.404 94.4562 178.404C92.9302 178.404 91.6842 177.144 91.6842 175.618C91.6842 174.078 92.9162 172.79 94.4422 172.79C95.1282 172.79 95.7442 172.972 96.2762 173.462C96.3882 173.546 96.5422 173.546 96.6542 173.448L97.7602 172.272C97.8722 172.16 97.8582 171.992 97.7322 171.894C96.7802 171.068 95.4922 170.578 94.3162 170.578C91.5302 170.578 89.2902 172.818 89.2902 175.618ZM99.1062 175.618C99.1062 178.418 101.332 180.644 104.132 180.644C106.932 180.644 109.172 178.418 109.172 175.618C109.172 172.818 106.932 170.564 104.132 170.564C101.332 170.564 99.1062 172.818 99.1062 175.618ZM101.346 175.618C101.346 174.078 102.606 172.804 104.132 172.804C105.672 172.804 106.932 174.078 106.932 175.618C106.932 177.144 105.672 178.404 104.132 178.404C102.606 178.404 101.346 177.144 101.346 175.618ZM110.867 180.238C110.867 180.378 110.993 180.504 111.133 180.504H112.799C112.953 180.504 113.065 180.378 113.065 180.238V175.016H113.079L118.609 180.574C118.637 180.602 118.749 180.644 118.791 180.644H119.015C119.155 180.644 119.281 180.532 119.281 180.392V170.97C119.281 170.83 119.155 170.704 119.015 170.704H117.335C117.181 170.704 117.069 170.83 117.069 170.97V175.94H117.055L111.469 170.564H111.119C110.979 170.564 110.853 170.676 110.853 170.816L110.867 180.238ZM120.813 180.238C120.813 180.378 120.939 180.504 121.079 180.504H127.155C127.309 180.504 127.421 180.378 127.421 180.238V178.712C127.421 178.572 127.309 178.446 127.155 178.446H124.103V178.418L127.701 171.152V170.97C127.701 170.83 127.575 170.704 127.435 170.704H121.485C121.345 170.704 121.219 170.83 121.219 170.97V172.496C121.219 172.636 121.345 172.762 121.485 172.762H124.537V172.79L120.813 179.986V180.238ZM128.261 180.504H129.801C130.081 180.504 130.235 180.336 130.305 180.168L130.809 179.048H134.617L135.121 180.154C135.247 180.42 135.359 180.504 135.611 180.504H137.165C137.375 180.504 137.487 180.322 137.403 180.14L133.021 170.718C132.979 170.634 132.881 170.564 132.783 170.564H132.643C132.545 170.564 132.447 170.634 132.405 170.718L128.023 180.14C127.939 180.322 128.051 180.504 128.261 180.504ZM131.649 177.144L132.699 174.834H132.713L133.777 177.144H131.649ZM138.553 180.238C138.553 180.378 138.665 180.504 138.819 180.504H144.083C144.237 180.504 144.349 180.378 144.349 180.238V178.712C144.349 178.572 144.237 178.446 144.083 178.446H140.751V170.97C140.751 170.83 140.625 170.704 140.485 170.704H138.819C138.665 170.704 138.553 170.83 138.553 170.97V180.238ZM145.703 180.238C145.703 180.378 145.815 180.504 145.969 180.504H151.765C151.919 180.504 152.031 180.378 152.031 180.238V178.712C152.031 178.572 151.919 178.446 151.765 178.446H147.887V176.556H151.079C151.219 176.556 151.345 176.444 151.345 176.29V174.764C151.345 174.624 151.219 174.498 151.079 174.498H147.887V172.762H151.765C151.919 172.762 152.031 172.636 152.031 172.496V170.97C152.031 170.83 151.919 170.704 151.765 170.704H145.969C145.815 170.704 145.703 170.83 145.703 170.97V180.238ZM153.024 180.238C153.024 180.378 153.15 180.504 153.29 180.504H159.366C159.52 180.504 159.632 180.378 159.632 180.238V178.712C159.632 178.572 159.52 178.446 159.366 178.446H156.314V178.418L159.912 171.152V170.97C159.912 170.83 159.786 170.704 159.646 170.704H153.696C153.556 170.704 153.43 170.83 153.43 170.97V172.496C153.43 172.636 153.556 172.762 153.696 172.762H156.748V172.79L153.024 179.986V180.238Z" fill="white"/>
<path d="M64.4535 156.254C67.0615 156.254 68.5495 154.158 68.5495 150.654C68.5495 147.15 67.0615 145.054 64.4535 145.054C61.8455 145.054 60.3575 147.15 60.3575 150.654C60.3575 154.158 61.8455 156.254 64.4535 156.254ZM64.4535 153.934C63.4775 153.934 62.9335 152.766 62.9335 150.654C62.9335 148.558 63.4775 147.374 64.4535 147.374C65.4295 147.374 65.9735 148.558 65.9735 150.654C65.9735 152.766 65.4295 153.934 64.4535 153.934ZM69.9598 155.79C69.9598 155.966 70.1038 156.094 70.2798 156.094H71.8638C72.1038 156.094 72.3278 156.03 72.5198 155.63L77.3038 145.63V145.518C77.3038 145.358 77.1598 145.214 76.9998 145.214H70.2478C70.0878 145.214 69.9438 145.358 69.9438 145.518V146.958C69.9438 147.118 70.0878 147.262 70.2478 147.262H73.9598L69.9598 155.614V155.79ZM77.658 155.694C77.594 155.918 77.738 156.094 77.946 156.094H79.53C79.642 156.094 79.786 155.998 79.818 155.886L82.938 145.294C83.002 145.07 82.874 144.894 82.65 144.894H81.082C80.954 144.894 80.826 144.99 80.794 145.102L77.658 155.694ZM83.5952 155.79C83.5952 155.95 83.7232 156.094 83.8992 156.094H90.2992C90.4592 156.094 90.6032 155.95 90.6032 155.79V154.35C90.6032 154.19 90.4592 154.046 90.2992 154.046H87.4832C88.2352 152.99 89.5472 151.278 90.0592 150.366C90.4432 149.614 90.6832 149.134 90.6832 148.286C90.6832 146.51 89.3392 145.054 87.0512 145.054C85.1472 145.054 83.8512 146.622 83.8512 146.622C83.7392 146.75 83.7552 146.942 83.8672 147.038L84.8432 148.03C84.9712 148.158 85.1632 148.158 85.2912 148.03C85.5952 147.694 86.1872 147.23 86.8432 147.23C87.7392 147.23 88.2512 147.774 88.2512 148.382C88.2512 148.83 88.0432 149.278 87.8352 149.598C86.8912 151.038 84.5232 154.254 83.5952 155.47V155.79ZM91.8139 155.79C91.8139 155.95 91.9419 156.094 92.1179 156.094H98.5179C98.6779 156.094 98.8219 155.95 98.8219 155.79V154.35C98.8219 154.19 98.6779 154.046 98.5179 154.046H95.7019C96.4539 152.99 97.7659 151.278 98.2779 150.366C98.6619 149.614 98.9019 149.134 98.9019 148.286C98.9019 146.51 97.5579 145.054 95.2699 145.054C93.3659 145.054 92.0699 146.622 92.0699 146.622C91.9579 146.75 91.9739 146.942 92.0859 147.038L93.0619 148.03C93.1899 148.158 93.3819 148.158 93.5099 148.03C93.8139 147.694 94.4059 147.23 95.0619 147.23C95.9579 147.23 96.4699 147.774 96.4699 148.382C96.4699 148.83 96.2619 149.278 96.0539 149.598C95.1099 151.038 92.7419 154.254 91.8139 155.47V155.79Z" fill="white"/>
<path d="M152.488 156.254C155.096 156.254 156.584 154.158 156.584 150.654C156.584 147.15 155.096 145.054 152.488 145.054C149.88 145.054 148.392 147.15 148.392 150.654C148.392 154.158 149.88 156.254 152.488 156.254ZM152.488 153.934C151.512 153.934 150.968 152.766 150.968 150.654C150.968 148.558 151.512 147.374 152.488 147.374C153.464 147.374 154.008 148.558 154.008 150.654C154.008 152.766 153.464 153.934 152.488 153.934ZM157.994 155.79C157.994 155.966 158.138 156.094 158.314 156.094H159.898C160.138 156.094 160.362 156.03 160.554 155.63L165.338 145.63V145.518C165.338 145.358 165.194 145.214 165.034 145.214H158.282C158.122 145.214 157.978 145.358 157.978 145.518V146.958C157.978 147.118 158.122 147.262 158.282 147.262H161.994L157.994 155.614V155.79ZM165.692 155.694C165.628 155.918 165.772 156.094 165.98 156.094H167.564C167.676 156.094 167.82 155.998 167.852 155.886L170.972 145.294C171.036 145.07 170.908 144.894 170.684 144.894H169.116C168.988 144.894 168.86 144.99 168.828 145.102L165.692 155.694ZM171.629 155.79C171.629 155.95 171.757 156.094 171.933 156.094H178.333C178.493 156.094 178.637 155.95 178.637 155.79V154.35C178.637 154.19 178.493 154.046 178.333 154.046H175.517C176.269 152.99 177.581 151.278 178.093 150.366C178.477 149.614 178.717 149.134 178.717 148.286C178.717 146.51 177.373 145.054 175.085 145.054C173.181 145.054 171.885 146.622 171.885 146.622C171.773 146.75 171.789 146.942 171.901 147.038L172.877 148.03C173.005 148.158 173.197 148.158 173.325 148.03C173.629 147.694 174.221 147.23 174.877 147.23C175.773 147.23 176.285 147.774 176.285 148.382C176.285 148.83 176.077 149.278 175.869 149.598C174.925 151.038 172.557 154.254 171.629 155.47V155.79ZM180.12 153.198C180.12 154.942 181.656 156.254 183.976 156.254C186.376 156.254 187.912 154.942 187.912 153.198C187.912 151.822 186.68 150.91 185.96 150.51V150.446C186.584 150.046 187.608 149.198 187.608 147.982C187.608 146.19 186.008 145.054 183.976 145.054C182.024 145.054 180.424 146.19 180.424 147.982C180.424 149.246 181.448 150.11 182.072 150.462V150.51C181.768 150.686 180.12 151.79 180.12 153.198ZM184.008 149.406C183.256 149.118 182.888 148.654 182.888 148.078C182.888 147.534 183.416 147.038 184.008 147.038C184.616 147.038 185.144 147.534 185.144 148.078C185.144 148.622 184.76 149.134 184.008 149.406ZM182.712 153.086C182.712 152.494 183.176 151.902 184.008 151.614C184.872 151.902 185.32 152.494 185.32 153.086C185.32 153.774 184.664 154.286 184.024 154.286C183.368 154.286 182.712 153.79 182.712 153.086Z" fill="white"/>
<path d="M127.321 153.306C127.321 153.406 127.401 153.496 127.511 153.496H131.651C131.761 153.496 131.841 153.406 131.841 153.306V152.216C131.841 152.116 131.761 152.026 131.651 152.026H128.881V150.676H131.161C131.261 150.676 131.351 150.596 131.351 150.486V149.396C131.351 149.296 131.261 149.206 131.161 149.206H128.881V147.966H131.651C131.761 147.966 131.841 147.876 131.841 147.776V146.686C131.841 146.586 131.761 146.496 131.651 146.496H127.511C127.401 146.496 127.321 146.586 127.321 146.686V153.306ZM132.56 153.216C132.47 153.346 132.56 153.496 132.73 153.496H134.12C134.2 153.496 134.26 153.446 134.29 153.406L135.57 151.386H135.59L136.9 153.406C136.93 153.456 137.01 153.496 137.07 153.496H138.46C138.62 153.496 138.71 153.356 138.62 153.216L136.52 149.906L138.55 146.776C138.64 146.646 138.55 146.496 138.38 146.496H136.92C136.85 146.496 136.78 146.546 136.76 146.586L135.59 148.446H135.58L134.43 146.586C134.4 146.546 134.34 146.496 134.27 146.496H132.81C132.64 146.496 132.56 146.646 132.64 146.776L134.66 149.906L132.56 153.216ZM139.733 153.306C139.733 153.406 139.813 153.496 139.923 153.496H141.103C141.203 153.496 141.293 153.406 141.293 153.306V150.956H142.343C143.563 150.956 144.573 149.946 144.573 148.706C144.573 147.496 143.563 146.496 142.333 146.496H139.923C139.813 146.496 139.733 146.586 139.733 146.686V153.306ZM141.293 149.496V147.966H142.243C142.673 147.966 143.033 148.286 143.033 148.706C143.033 149.156 142.673 149.496 142.243 149.496H141.293Z" fill="white"/>
<path d="M33.5292 109.14H35.0052C35.3652 109.14 35.6892 108.816 35.6892 108.456L35.6172 105.252L38.2812 107.052C38.5692 107.232 39.0012 107.16 39.1812 106.872L40.0812 105.612C40.2612 105.324 40.2252 104.892 39.8652 104.676L36.7692 102.804L39.8652 100.968C40.2252 100.752 40.2612 100.284 40.0452 99.9605L39.2532 98.7365C39.0732 98.4485 38.6052 98.3765 38.3172 98.5565L35.6172 100.392L35.6892 97.1165C35.6892 96.7565 35.3652 96.4325 35.0052 96.4325H33.5292C33.1692 96.4325 32.8452 96.7565 32.8452 97.1165L32.9172 100.392L30.2532 98.5565C29.9652 98.3405 29.5692 98.4485 29.3532 98.7005C29.0652 99.0965 28.8492 99.4205 28.4892 99.9605C28.3092 100.284 28.3812 100.716 28.7052 100.932L31.8012 102.804L28.7052 104.64C28.3452 104.856 28.3092 105.288 28.5252 105.612L29.3172 106.872C29.4972 107.16 29.9652 107.268 30.2532 107.052L32.9172 105.216L32.8452 108.456C32.8452 108.816 33.1692 109.14 33.5292 109.14ZM46.6425 109.14H48.1185C48.4785 109.14 48.8025 108.816 48.8025 108.456L48.7305 105.252L51.3945 107.052C51.6825 107.232 52.1145 107.16 52.2945 106.872L53.1945 105.612C53.3745 105.324 53.3385 104.892 52.9785 104.676L49.8825 102.804L52.9785 100.968C53.3385 100.752 53.3745 100.284 53.1585 99.9605L52.3665 98.7365C52.1865 98.4485 51.7185 98.3765 51.4305 98.5565L48.7305 100.392L48.8025 97.1165C48.8025 96.7565 48.4785 96.4325 48.1185 96.4325H46.6425C46.2825 96.4325 45.9585 96.7565 45.9585 97.1165L46.0305 100.392L43.3665 98.5565C43.0785 98.3405 42.6825 98.4485 42.4665 98.7005C42.1785 99.0965 41.9625 99.4205 41.6025 99.9605C41.4225 100.284 41.4945 100.716 41.8185 100.932L44.9145 102.804L41.8185 104.64C41.4585 104.856 41.4225 105.288 41.6385 105.612L42.4305 106.872C42.6105 107.16 43.0785 107.268 43.3665 107.052L46.0305 105.216L45.9585 108.456C45.9585 108.816 46.2825 109.14 46.6425 109.14ZM59.7558 109.14H61.2318C61.5918 109.14 61.9158 108.816 61.9158 108.456L61.8438 105.252L64.5078 107.052C64.7958 107.232 65.2278 107.16 65.4078 106.872L66.3078 105.612C66.4878 105.324 66.4518 104.892 66.0918 104.676L62.9958 102.804L66.0918 100.968C66.4518 100.752 66.4878 100.284 66.2718 99.9605L65.4798 98.7365C65.2998 98.4485 64.8318 98.3765 64.5438 98.5565L61.8438 100.392L61.9158 97.1165C61.9158 96.7565 61.5918 96.4325 61.2318 96.4325H59.7558C59.3958 96.4325 59.0718 96.7565 59.0718 97.1165L59.1438 100.392L56.4798 98.5565C56.1918 98.3405 55.7958 98.4485 55.5798 98.7005C55.2918 99.0965 55.0758 99.4205 54.7158 99.9605C54.5358 100.284 54.6078 100.716 54.9318 100.932L58.0278 102.804L54.9318 104.64C54.5718 104.856 54.5358 105.288 54.7518 105.612L55.5438 106.872C55.7238 107.16 56.1918 107.268 56.4798 107.052L59.1438 105.216L59.0718 108.456C59.0718 108.816 59.3958 109.14 59.7558 109.14ZM72.8691 109.14H74.3451C74.7051 109.14 75.0291 108.816 75.0291 108.456L74.9571 105.252L77.6211 107.052C77.9091 107.232 78.3411 107.16 78.5211 106.872L79.4211 105.612C79.6011 105.324 79.5651 104.892 79.2051 104.676L76.1091 102.804L79.2051 100.968C79.5651 100.752 79.6011 100.284 79.3851 99.9605L78.5931 98.7365C78.4131 98.4485 77.9451 98.3765 77.6571 98.5565L74.9571 100.392L75.0291 97.1165C75.0291 96.7565 74.7051 96.4325 74.3451 96.4325H72.8691C72.5091 96.4325 72.1851 96.7565 72.1851 97.1165L72.2571 100.392L69.5931 98.5565C69.3051 98.3405 68.9091 98.4485 68.6931 98.7005C68.4051 99.0965 68.1891 99.4205 67.8291 99.9605C67.6491 100.284 67.7211 100.716 68.0451 100.932L71.1411 102.804L68.0451 104.64C67.6851 104.856 67.6491 105.288 67.8651 105.612L68.6571 106.872C68.8371 107.16 69.3051 107.268 69.5931 107.052L72.2571 105.216L72.1851 108.456C72.1851 108.816 72.5091 109.14 72.8691 109.14ZM93.9277 109.14H95.4037C95.7637 109.14 96.0877 108.816 96.0877 108.456L96.0157 105.252L98.6797 107.052C98.9677 107.232 99.3997 107.16 99.5797 106.872L100.48 105.612C100.66 105.324 100.624 104.892 100.264 104.676L97.1677 102.804L100.264 100.968C100.624 100.752 100.66 100.284 100.444 99.9605L99.6517 98.7365C99.4717 98.4485 99.0037 98.3765 98.7157 98.5565L96.0157 100.392L96.0877 97.1165C96.0877 96.7565 95.7637 96.4325 95.4037 96.4325H93.9277C93.5677 96.4325 93.2437 96.7565 93.2437 97.1165L93.3157 100.392L90.6517 98.5565C90.3637 98.3405 89.9677 98.4485 89.7517 98.7005C89.4637 99.0965 89.2477 99.4205 88.8877 99.9605C88.7077 100.284 88.7797 100.716 89.1037 100.932L92.1997 102.804L89.1037 104.64C88.7437 104.856 88.7077 105.288 88.9237 105.612L89.7157 106.872C89.8957 107.16 90.3637 107.268 90.6517 107.052L93.3157 105.216L93.2437 108.456C93.2437 108.816 93.5677 109.14 93.9277 109.14ZM107.041 109.14H108.517C108.877 109.14 109.201 108.816 109.201 108.456L109.129 105.252L111.793 107.052C112.081 107.232 112.513 107.16 112.693 106.872L113.593 105.612C113.773 105.324 113.737 104.892 113.377 104.676L110.281 102.804L113.377 100.968C113.737 100.752 113.773 100.284 113.557 99.9605L112.765 98.7365C112.585 98.4485 112.117 98.3765 111.829 98.5565L109.129 100.392L109.201 97.1165C109.201 96.7565 108.877 96.4325 108.517 96.4325H107.041C106.681 96.4325 106.357 96.7565 106.357 97.1165L106.429 100.392L103.765 98.5565C103.477 98.3405 103.081 98.4485 102.865 98.7005C102.577 99.0965 102.361 99.4205 102.001 99.9605C101.821 100.284 101.893 100.716 102.217 100.932L105.313 102.804L102.217 104.64C101.857 104.856 101.821 105.288 102.037 105.612L102.829 106.872C103.009 107.16 103.477 107.268 103.765 107.052L106.429 105.216L106.357 108.456C106.357 108.816 106.681 109.14 107.041 109.14ZM120.154 109.14H121.63C121.99 109.14 122.314 108.816 122.314 108.456L122.242 105.252L124.906 107.052C125.194 107.232 125.626 107.16 125.806 106.872L126.706 105.612C126.886 105.324 126.85 104.892 126.49 104.676L123.394 102.804L126.49 100.968C126.85 100.752 126.886 100.284 126.67 99.9605L125.878 98.7365C125.698 98.4485 125.23 98.3765 124.942 98.5565L122.242 100.392L122.314 97.1165C122.314 96.7565 121.99 96.4325 121.63 96.4325H120.154C119.794 96.4325 119.47 96.7565 119.47 97.1165L119.542 100.392L116.878 98.5565C116.59 98.3405 116.194 98.4485 115.978 98.7005C115.69 99.0965 115.474 99.4205 115.114 99.9605C114.934 100.284 115.006 100.716 115.33 100.932L118.426 102.804L115.33 104.64C114.97 104.856 114.934 105.288 115.15 105.612L115.942 106.872C116.122 107.16 116.59 107.268 116.878 107.052L119.542 105.216L119.47 108.456C119.47 108.816 119.794 109.14 120.154 109.14ZM133.268 109.14H134.744C135.104 109.14 135.428 108.816 135.428 108.456L135.356 105.252L138.02 107.052C138.308 107.232 138.74 107.16 138.92 106.872L139.82 105.612C140 105.324 139.964 104.892 139.604 104.676L136.508 102.804L139.604 100.968C139.964 100.752 140 100.284 139.784 99.9605L138.992 98.7365C138.812 98.4485 138.344 98.3765 138.056 98.5565L135.356 100.392L135.428 97.1165C135.428 96.7565 135.104 96.4325 134.744 96.4325H133.268C132.908 96.4325 132.584 96.7565 132.584 97.1165L132.656 100.392L129.992 98.5565C129.704 98.3405 129.308 98.4485 129.092 98.7005C128.804 99.0965 128.588 99.4205 128.228 99.9605C128.048 100.284 128.12 100.716 128.444 100.932L131.54 102.804L128.444 104.64C128.084 104.856 128.048 105.288 128.264 105.612L129.056 106.872C129.236 107.16 129.704 107.268 129.992 107.052L132.656 105.216L132.584 108.456C132.584 108.816 132.908 109.14 133.268 109.14ZM154.326 109.14H155.802C156.162 109.14 156.486 108.816 156.486 108.456L156.414 105.252L159.078 107.052C159.366 107.232 159.798 107.16 159.978 106.872L160.878 105.612C161.058 105.324 161.022 104.892 160.662 104.676L157.566 102.804L160.662 100.968C161.022 100.752 161.058 100.284 160.842 99.9605L160.05 98.7365C159.87 98.4485 159.402 98.3765 159.114 98.5565L156.414 100.392L156.486 97.1165C156.486 96.7565 156.162 96.4325 155.802 96.4325H154.326C153.966 96.4325 153.642 96.7565 153.642 97.1165L153.714 100.392L151.05 98.5565C150.762 98.3405 150.366 98.4485 150.15 98.7005C149.862 99.0965 149.646 99.4205 149.286 99.9605C149.106 100.284 149.178 100.716 149.502 100.932L152.598 102.804L149.502 104.64C149.142 104.856 149.106 105.288 149.322 105.612L150.114 106.872C150.294 107.16 150.762 107.268 151.05 107.052L153.714 105.216L153.642 108.456C153.642 108.816 153.966 109.14 154.326 109.14ZM167.439 109.14H168.915C169.275 109.14 169.599 108.816 169.599 108.456L169.527 105.252L172.191 107.052C172.479 107.232 172.911 107.16 173.091 106.872L173.991 105.612C174.171 105.324 174.135 104.892 173.775 104.676L170.679 102.804L173.775 100.968C174.135 100.752 174.171 100.284 173.955 99.9605L173.163 98.7365C172.983 98.4485 172.515 98.3765 172.227 98.5565L169.527 100.392L169.599 97.1165C169.599 96.7565 169.275 96.4325 168.915 96.4325H167.439C167.079 96.4325 166.755 96.7565 166.755 97.1165L166.827 100.392L164.163 98.5565C163.875 98.3405 163.479 98.4485 163.263 98.7005C162.975 99.0965 162.759 99.4205 162.399 99.9605C162.219 100.284 162.291 100.716 162.615 100.932L165.711 102.804L162.615 104.64C162.255 104.856 162.219 105.288 162.435 105.612L163.227 106.872C163.407 107.16 163.875 107.268 164.163 107.052L166.827 105.216L166.755 108.456C166.755 108.816 167.079 109.14 167.439 109.14ZM180.553 109.14H182.029C182.389 109.14 182.713 108.816 182.713 108.456L182.641 105.252L185.305 107.052C185.593 107.232 186.025 107.16 186.205 106.872L187.105 105.612C187.285 105.324 187.249 104.892 186.889 104.676L183.793 102.804L186.889 100.968C187.249 100.752 187.285 100.284 187.069 99.9605L186.277 98.7365C186.097 98.4485 185.629 98.3765 185.341 98.5565L182.641 100.392L182.713 97.1165C182.713 96.7565 182.389 96.4325 182.029 96.4325H180.553C180.193 96.4325 179.869 96.7565 179.869 97.1165L179.941 100.392L177.277 98.5565C176.989 98.3405 176.593 98.4485 176.377 98.7005C176.089 99.0965 175.873 99.4205 175.513 99.9605C175.333 100.284 175.405 100.716 175.729 100.932L178.825 102.804L175.729 104.64C175.369 104.856 175.333 105.288 175.549 105.612L176.341 106.872C176.521 107.16 176.989 107.268 177.277 107.052L179.941 105.216L179.869 108.456C179.869 108.816 180.193 109.14 180.553 109.14ZM193.666 109.14H195.142C195.502 109.14 195.826 108.816 195.826 108.456L195.754 105.252L198.418 107.052C198.706 107.232 199.138 107.16 199.318 106.872L200.218 105.612C200.398 105.324 200.362 104.892 200.002 104.676L196.906 102.804L200.002 100.968C200.362 100.752 200.398 100.284 200.182 99.9605L199.39 98.7365C199.21 98.4485 198.742 98.3765 198.454 98.5565L195.754 100.392L195.826 97.1165C195.826 96.7565 195.502 96.4325 195.142 96.4325H193.666C193.306 96.4325 192.982 96.7565 192.982 97.1165L193.054 100.392L190.39 98.5565C190.102 98.3405 189.706 98.4485 189.49 98.7005C189.202 99.0965 188.986 99.4205 188.626 99.9605C188.446 100.284 188.518 100.716 188.842 100.932L191.938 102.804L188.842 104.64C188.482 104.856 188.446 105.288 188.662 105.612L189.454 106.872C189.634 107.16 190.102 107.268 190.39 107.052L193.054 105.216L192.982 108.456C192.982 108.816 193.306 109.14 193.666 109.14Z" fill="white"/>
<path d="M218.24 110.2C221.5 110.2 223.36 107.58 223.36 103.2C223.36 98.82 221.5 96.2 218.24 96.2C214.98 96.2 213.12 98.82 213.12 103.2C213.12 107.58 214.98 110.2 218.24 110.2ZM218.24 107.3C217.02 107.3 216.34 105.84 216.34 103.2C216.34 100.58 217.02 99.1 218.24 99.1C219.46 99.1 220.14 100.58 220.14 103.2C220.14 105.84 219.46 107.3 218.24 107.3ZM230.72 110.2C233.98 110.2 235.84 107.58 235.84 103.2C235.84 98.82 233.98 96.2 230.72 96.2C227.46 96.2 225.6 98.82 225.6 103.2C225.6 107.58 227.46 110.2 230.72 110.2ZM230.72 107.3C229.5 107.3 228.82 105.84 228.82 103.2C228.82 100.58 229.5 99.1 230.72 99.1C231.94 99.1 232.62 100.58 232.62 103.2C232.62 105.84 231.94 107.3 230.72 107.3ZM243.201 110.2C246.461 110.2 248.321 107.58 248.321 103.2C248.321 98.82 246.461 96.2 243.201 96.2C239.941 96.2 238.081 98.82 238.081 103.2C238.081 107.58 239.941 110.2 243.201 110.2ZM243.201 107.3C241.981 107.3 241.301 105.84 241.301 103.2C241.301 100.58 241.981 99.1 243.201 99.1C244.421 99.1 245.101 100.58 245.101 103.2C245.101 105.84 244.421 107.3 243.201 107.3ZM255.681 110.2C258.941 110.2 260.801 107.58 260.801 103.2C260.801 98.82 258.941 96.2 255.681 96.2C252.421 96.2 250.561 98.82 250.561 103.2C250.561 107.58 252.421 110.2 255.681 110.2ZM255.681 107.3C254.461 107.3 253.781 105.84 253.781 103.2C253.781 100.58 254.461 99.1 255.681 99.1C256.901 99.1 257.581 100.58 257.581 103.2C257.581 105.84 256.901 107.3 255.681 107.3Z" fill="white"/>
<path d="M284.062 164.75L283.781 163.438C283.594 164 283.219 164.938 283.312 164.844C283.312 164.844 282.094 168.125 281.812 168.969H284.906C284.719 168.219 284.062 164.75 284.062 164.75ZM294 150.5C294 148.062 291.938 146 289.5 146H244.5C241.969 146 240 148.062 240 150.5V183.5C240 186.031 241.969 188 244.5 188H289.5C291.938 188 294 186.031 294 183.5V150.5ZM254.25 174.125H250.312L246.938 161.469C245.719 160.719 244.406 160.25 243 159.875V159.5H249.094C249.938 159.594 250.594 159.875 250.781 160.812L252.094 167.469L252.469 169.438L256.219 159.5H260.156L254.25 174.125ZM263.062 174.125H259.312L261.656 159.5H265.5L263.062 174.125ZM276.188 169.344C276.188 172.344 273.656 174.312 269.625 174.312C267.938 174.312 266.344 173.938 265.5 173.562L265.969 170.281L266.438 170.469C267.75 171.031 268.5 171.312 270 171.312C271.125 171.312 272.25 170.844 272.25 169.812C272.25 169.25 271.781 168.781 270.281 168.031C268.875 167.375 267 166.156 267 164.094C267 161.281 269.625 159.312 273.375 159.312C274.875 159.312 276 159.594 276.75 159.875L276.281 163.062L275.906 162.875C275.25 162.594 274.312 162.312 273.094 162.312C271.594 162.312 270.938 162.969 270.938 163.625C270.938 164.281 271.781 164.75 273.094 165.406C275.25 166.438 276.281 167.656 276.188 169.344ZM289.5 174.125H285.938C285.938 174.125 285.656 172.438 285.562 171.969H280.688C280.5 172.344 279.938 174.125 279.938 174.125H275.906L281.531 160.719C281.906 159.781 282.562 159.5 283.5 159.5H286.406L289.5 174.125Z" fill="white"/>
<path d="M277.483 67.5174C279.241 66.1893 281.429 65.1346 284.124 65.1346C287.249 65.1346 289.788 66.5799 291.624 68.2987C293.46 69.9784 294.671 72.0096 295.257 73.4159C295.374 73.7284 295.374 74.0799 295.257 74.3924C294.749 75.6424 293.694 77.4393 292.132 79.0018L296.233 82.244C296.663 82.5565 296.741 83.1424 296.39 83.5331C296.077 83.9627 295.491 84.0409 295.1 83.6893L271.975 65.5643C271.546 65.2518 271.468 64.6659 271.819 64.2752C272.132 63.8456 272.718 63.7674 273.108 64.119L277.483 67.5174ZM280.335 69.744L283.85 72.5174C284.007 72.1659 284.124 71.8143 284.124 71.3846C284.124 70.9549 283.968 70.5252 283.772 70.1737C283.89 70.1737 284.007 70.1346 284.124 70.1346C286.194 70.1346 287.874 71.8143 287.874 73.8846C287.874 74.4315 287.757 74.9393 287.522 75.4081L289.046 76.5799C289.475 75.7987 289.749 74.8612 289.749 73.8846C289.749 70.7987 287.21 68.2596 284.124 68.2596C282.64 68.2596 281.311 68.8456 280.335 69.744ZM284.124 82.6346C280.96 82.6346 278.421 81.2284 276.585 79.5096C274.749 77.7909 273.538 75.7596 272.952 74.3924C272.835 74.0799 272.835 73.7284 272.952 73.4159C273.343 72.5174 273.968 71.3846 274.866 70.2127L278.538 73.1034C278.499 73.3768 278.499 73.6502 278.499 73.8846C278.499 77.0096 280.999 79.5096 284.124 79.5096C284.827 79.5096 285.53 79.3924 286.194 79.119L289.046 81.3846C287.6 82.1659 285.96 82.6346 284.124 82.6346Z" fill="white"/>
<defs>
<filter id="filter0_d_429_171" x="0" y="0" width="315" height="214" filterUnits="userSpaceOnUse" color-interpolation-filters="sRGB">
<feFlood flood-opacity="0" result="BackgroundImageFix"/>
<feColorMatrix in="SourceAlpha" type="matrix" values="0 0 0 0 0 0 0 0 0 0 0 0 0 0 0 0 0 0 127 0" result="hardAlpha"/>
<feOffset dy="4"/>
<feGaussianBlur stdDeviation="2"/>
<feComposite in2="hardAlpha" operator="out"/>
<feColorMatrix type="matrix" values="0 0 0 0 0 0 0 0 0 0 0 0 0 0 0 0 0 0 0.25 0"/>
<feBlend mode="normal" in2="BackgroundImageFix" result="effect1_dropShadow_429_171"/>
<feBlend mode="normal" in="SourceGraphic" in2="effect1_dropShadow_429_171" result="shape"/>
</filter>
<filter id="filter1_d_429_171" x="0" y="3.05176e-05" width="315" height="120.504" filterUnits="userSpaceOnUse" color-interpolation-filters="sRGB">
<feFlood flood-opacity="0" result="BackgroundImageFix"/>
<feColorMatrix in="SourceAlpha" type="matrix" values="0 0 0 0 0 0 0 0 0 0 0 0 0 0 0 0 0 0 127 0" result="hardAlpha"/>
<feOffset dy="4"/>
<feGaussianBlur stdDeviation="2"/>
<feComposite in2="hardAlpha" operator="out"/>
<feColorMatrix type="matrix" values="0 0 0 0 0 0 0 0 0 0 0 0 0 0 0 0 0 0 0.25 0"/>
<feBlend mode="normal" in2="BackgroundImageFix" result="effect1_dropShadow_429_171"/>
<feBlend mode="normal" in="SourceGraphic" in2="effect1_dropShadow_429_171" result="shape"/>
</filter>
</defs>
</svg>
