<svg width="315" height="214" viewBox="0 0 315 214" fill="none" xmlns="http://www.w3.org/2000/svg">
<g filter="url(#filter0_d_429_172)">
<path d="M4 25C4 11.1929 15.1929 0 29 0H286C299.807 0 311 11.1929 311 25V181C311 194.807 299.807 206 286 206H29C15.1929 206 4 194.807 4 181V25Z" fill="#050DCA" fill-opacity="0.75" shape-rendering="crispEdges"/>
</g>
<g filter="url(#filter1_d_429_172)">
<path d="M285 0.00402296C305.8 0.00402115 311 17.3374 311 26.004L311 77.5C302.333 62.3333 253.363 14.682 202 55.0041C148.916 96.6778 134.228 92.0789 77.8323 74.4212L76.5 74.0041C31.7997 60.011 8 96.5041 4 112.504L3.99999 26.004C3.99999 4.80404 21.3333 -0.162618 30 0.00404526L285 0.00402296Z" fill="#0E0E52"/>
</g>
<path d="M30.064 25.328C31.472 25.328 32.624 24.208 32.624 22.8C32.624 21.392 31.472 20.24 30.064 20.24C28.656 20.24 27.536 21.392 27.536 22.8C27.536 24.208 28.656 25.328 30.064 25.328ZM27.728 41.392C27.728 41.712 28.016 42 28.336 42H31.856C32.176 42 32.464 41.712 32.464 41.392V29.808C32.464 29.456 32.176 29.2 31.856 29.2H28.336C28.016 29.2 27.728 29.456 27.728 29.808V41.392ZM36.4275 37.872C36.4275 40.784 37.8355 42.32 40.2675 42.32C41.8675 42.32 44.1395 41.616 44.1395 41.616C44.4595 41.52 44.6195 41.168 44.5555 40.88L43.8515 38.224C43.7555 37.872 43.4675 37.744 43.1475 37.808C42.8275 37.872 42.3475 38.032 41.8995 38.032C41.5155 38.032 41.0355 37.968 41.0355 37.264V33.264H43.4035C43.7555 33.264 44.0115 32.976 44.0115 32.656V29.808C44.0115 29.456 43.7555 29.2 43.4035 29.2H41.0355V25.648C41.0355 25.328 40.7795 25.04 40.4595 25.04H37.0355C36.7155 25.04 36.4275 25.328 36.4275 25.648V29.2H35.5955C35.2755 29.2 35.0195 29.456 35.0195 29.808V32.656C35.0195 32.976 35.2755 33.264 35.5955 33.264H36.4275V37.872ZM46.9155 41.392C46.9155 41.712 47.2035 42 47.5235 42H49.0275C49.3475 42 49.5715 41.712 49.6995 41.36L50.0835 40.304C50.0835 40.304 51.5555 42.32 54.3715 42.32C57.9875 42.32 60.7075 39.28 60.7075 35.6C60.7075 31.088 57.7635 28.88 54.3395 28.88C53.2515 28.88 52.0675 29.264 51.6835 29.488V20.208C51.6835 19.888 51.3955 19.6 51.0755 19.6H47.5235C47.2035 19.6 46.9155 19.888 46.9155 20.208V41.392ZM51.1715 35.568C51.1715 34.128 52.2595 33.008 53.7315 33.008C55.2035 33.008 56.3235 34.128 56.3235 35.568C56.3235 37.04 55.2035 38.192 53.7315 38.192C52.2595 38.192 51.1715 37.04 51.1715 35.568ZM62.364 38.096C62.364 40.624 64.252 42.32 66.78 42.32C68.796 42.32 69.916 41.392 70.652 40.72L71.1 41.584C71.26 41.936 71.484 42 71.676 42H73.084C73.404 42 73.692 41.712 73.692 41.392V34.32C73.692 30.544 72.252 28.88 68.284 28.88C66.556 28.88 64.316 29.264 64.028 29.36C63.74 29.456 63.452 29.68 63.548 30.224L63.836 32.24C63.9 32.72 64.124 33.072 64.604 32.912C65.436 32.656 66.94 32.432 67.804 32.432C69.34 32.432 69.532 33.072 69.532 34.32C69.532 34.32 68.508 33.808 67.068 33.808C64.156 33.808 62.364 35.632 62.364 38.096ZM66.524 37.776C66.524 37.04 67.132 36.432 67.9 36.432C68.668 36.432 69.276 37.04 69.308 37.776C69.308 38.544 68.668 39.184 67.9 39.184C67.132 39.184 66.524 38.544 66.524 37.776ZM76.9468 41.392C76.9468 41.712 77.2348 42 77.5548 42H80.9148C81.3628 42 81.4908 41.68 81.4908 41.392V35.248C81.4908 33.936 82.6428 33.008 83.9228 33.008C85.3628 33.008 86.0988 34.128 86.0988 35.408V41.392C86.0988 41.712 86.3548 42 86.7068 42H90.1308C90.4508 42 90.7388 41.712 90.7388 41.392V35.568C90.7388 31.92 88.6268 28.88 84.6588 28.88C82.3228 28.88 80.8508 30.096 80.1468 30.864L79.6348 29.584C79.5388 29.36 79.2508 29.2 79.0588 29.2H77.5548C77.2348 29.2 76.9468 29.456 76.9468 29.808V41.392ZM93.853 41.392C93.853 41.712 94.141 42 94.461 42H98.013C98.333 42 98.621 41.712 98.621 41.392V36.176L102.973 41.744C103.069 41.872 103.325 42 103.453 42H107.773C108.317 42 108.605 41.456 108.253 41.04L103.133 35.088L107.357 30.192C107.709 29.744 107.421 29.2 106.877 29.2H103.293C102.909 29.2 102.685 29.392 102.493 29.584L98.621 34.064V20.208C98.621 19.888 98.333 19.6 98.013 19.6H94.461C94.141 19.6 93.853 19.888 93.853 20.208V41.392Z" fill="white"/>
<path d="M32.737 180.196C32.709 180.378 32.835 180.504 33.003 180.504H34.655C34.795 180.504 34.907 180.392 34.921 180.28L35.537 175.954H35.565L37.931 180.49C37.973 180.574 38.085 180.644 38.169 180.644H38.421C38.491 180.644 38.617 180.574 38.659 180.49L41.011 175.954H41.039L41.669 180.28C41.683 180.392 41.809 180.504 41.935 180.504H43.587C43.755 180.504 43.881 180.378 43.853 180.196L42.271 170.788C42.257 170.662 42.131 170.564 42.019 170.564H41.795C41.725 170.564 41.599 170.62 41.557 170.704L38.309 176.752H38.281L35.033 170.704C34.991 170.62 34.865 170.564 34.795 170.564H34.571C34.459 170.564 34.333 170.662 34.319 170.788L32.737 180.196ZM44.622 180.504H46.162C46.442 180.504 46.596 180.336 46.666 180.168L47.17 179.048H50.978L51.482 180.154C51.608 180.42 51.72 180.504 51.972 180.504H53.526C53.736 180.504 53.848 180.322 53.764 180.14L49.382 170.718C49.34 170.634 49.242 170.564 49.144 170.564H49.004C48.906 170.564 48.808 170.634 48.766 170.718L44.384 180.14C44.3 180.322 44.412 180.504 44.622 180.504ZM48.01 177.144L49.06 174.834H49.074L50.138 177.144H48.01ZM54.9135 180.238C54.9135 180.378 55.0255 180.504 55.1795 180.504H56.8455C56.9855 180.504 57.1115 180.378 57.1115 180.238V176.668H58.0775L59.9395 180.378C59.9675 180.434 60.0515 180.504 60.1635 180.504H62.0255C62.2635 180.504 62.3615 180.28 62.2635 180.098L60.3455 176.542C61.5635 176.052 62.4175 175.016 62.4175 173.728C62.4175 172.062 61.0455 170.704 59.3655 170.704H55.1795C55.0255 170.704 54.9135 170.83 54.9135 170.97V180.238ZM57.1115 174.89V172.706H59.1835C59.7575 172.706 60.2475 173.182 60.2475 173.77C60.2475 174.358 59.7575 174.89 59.1835 174.89H57.1115ZM65.5524 180.238C65.5524 180.378 65.6784 180.504 65.8184 180.504H67.4984C67.6384 180.504 67.7644 180.378 67.7644 180.238V172.762H69.7664C69.9204 172.762 70.0324 172.636 70.0324 172.496V170.97C70.0324 170.83 69.9204 170.704 69.7664 170.704H63.5504C63.3964 170.704 63.2844 170.83 63.2844 170.97V172.496C63.2844 172.636 63.3964 172.762 63.5504 172.762H65.5524V180.238ZM71.4292 180.238C71.4292 180.378 71.5552 180.504 71.6952 180.504H73.3752C73.5152 180.504 73.6412 180.378 73.6412 180.238V170.97C73.6412 170.83 73.5152 170.704 73.3752 170.704H71.6952C71.5552 170.704 71.4292 170.83 71.4292 170.97V180.238ZM76.0503 180.238C76.0503 180.378 76.1763 180.504 76.3163 180.504H77.9823C78.1363 180.504 78.2483 180.378 78.2483 180.238V175.016H78.2623L83.7923 180.574C83.8203 180.602 83.9323 180.644 83.9743 180.644H84.1983C84.3383 180.644 84.4643 180.532 84.4643 180.392V170.97C84.4643 170.83 84.3383 170.704 84.1983 170.704H82.5183C82.3643 170.704 82.2523 170.83 82.2523 170.97V175.94H82.2383L76.6523 170.564H76.3023C76.1623 170.564 76.0363 170.676 76.0363 170.816L76.0503 180.238ZM89.2682 175.618C89.2682 178.418 91.5082 180.63 94.2942 180.63C96.3242 180.63 97.7662 179.72 97.7662 179.72C97.8222 179.678 97.8782 179.566 97.8782 179.496L97.8642 175.73C97.8642 175.59 97.7522 175.464 97.6122 175.464H94.7982C94.6442 175.464 94.5322 175.576 94.5322 175.73V177.116C94.5322 177.256 94.6442 177.368 94.7982 177.368H95.6802V178.18C95.2602 178.348 94.8402 178.404 94.4342 178.404C92.9082 178.404 91.6622 177.144 91.6622 175.618C91.6622 174.078 92.8942 172.79 94.4202 172.79C95.1062 172.79 95.7222 172.972 96.2542 173.462C96.3662 173.546 96.5202 173.546 96.6322 173.448L97.7382 172.272C97.8502 172.16 97.8362 171.992 97.7102 171.894C96.7582 171.068 95.4702 170.578 94.2942 170.578C91.5082 170.578 89.2682 172.818 89.2682 175.618ZM99.0843 175.618C99.0843 178.418 101.31 180.644 104.11 180.644C106.91 180.644 109.15 178.418 109.15 175.618C109.15 172.818 106.91 170.564 104.11 170.564C101.31 170.564 99.0843 172.818 99.0843 175.618ZM101.324 175.618C101.324 174.078 102.584 172.804 104.11 172.804C105.65 172.804 106.91 174.078 106.91 175.618C106.91 177.144 105.65 178.404 104.11 178.404C102.584 178.404 101.324 177.144 101.324 175.618ZM110.845 180.238C110.845 180.378 110.971 180.504 111.111 180.504H112.777C112.931 180.504 113.043 180.378 113.043 180.238V175.016H113.057L118.587 180.574C118.615 180.602 118.727 180.644 118.769 180.644H118.993C119.133 180.644 119.259 180.532 119.259 180.392V170.97C119.259 170.83 119.133 170.704 118.993 170.704H117.313C117.159 170.704 117.047 170.83 117.047 170.97V175.94H117.033L111.447 170.564H111.097C110.957 170.564 110.831 170.676 110.831 170.816L110.845 180.238ZM120.791 180.238C120.791 180.378 120.917 180.504 121.057 180.504H127.133C127.287 180.504 127.399 180.378 127.399 180.238V178.712C127.399 178.572 127.287 178.446 127.133 178.446H124.081V178.418L127.679 171.152V170.97C127.679 170.83 127.553 170.704 127.413 170.704H121.463C121.323 170.704 121.197 170.83 121.197 170.97V172.496C121.197 172.636 121.323 172.762 121.463 172.762H124.515V172.79L120.791 179.986V180.238ZM128.239 180.504H129.779C130.059 180.504 130.213 180.336 130.283 180.168L130.787 179.048H134.595L135.099 180.154C135.225 180.42 135.337 180.504 135.589 180.504H137.143C137.353 180.504 137.465 180.322 137.381 180.14L132.999 170.718C132.957 170.634 132.859 170.564 132.761 170.564H132.621C132.523 170.564 132.425 170.634 132.383 170.718L128.001 180.14C127.917 180.322 128.029 180.504 128.239 180.504ZM131.627 177.144L132.677 174.834H132.691L133.755 177.144H131.627ZM138.531 180.238C138.531 180.378 138.643 180.504 138.797 180.504H144.061C144.215 180.504 144.327 180.378 144.327 180.238V178.712C144.327 178.572 144.215 178.446 144.061 178.446H140.729V170.97C140.729 170.83 140.603 170.704 140.463 170.704H138.797C138.643 170.704 138.531 170.83 138.531 170.97V180.238ZM145.681 180.238C145.681 180.378 145.793 180.504 145.947 180.504H151.743C151.897 180.504 152.009 180.378 152.009 180.238V178.712C152.009 178.572 151.897 178.446 151.743 178.446H147.865V176.556H151.057C151.197 176.556 151.323 176.444 151.323 176.29V174.764C151.323 174.624 151.197 174.498 151.057 174.498H147.865V172.762H151.743C151.897 172.762 152.009 172.636 152.009 172.496V170.97C152.009 170.83 151.897 170.704 151.743 170.704H145.947C145.793 170.704 145.681 170.83 145.681 170.97V180.238ZM153.002 180.238C153.002 180.378 153.128 180.504 153.268 180.504H159.344C159.498 180.504 159.61 180.378 159.61 180.238V178.712C159.61 178.572 159.498 178.446 159.344 178.446H156.292V178.418L159.89 171.152V170.97C159.89 170.83 159.764 170.704 159.624 170.704H153.674C153.534 170.704 153.408 170.83 153.408 170.97V172.496C153.408 172.636 153.534 172.762 153.674 172.762H156.726V172.79L153.002 179.986V180.238Z" fill="white"/>
<path d="M64.4103 156.254C67.0183 156.254 68.5063 154.158 68.5063 150.654C68.5063 147.15 67.0183 145.054 64.4103 145.054C61.8023 145.054 60.3143 147.15 60.3143 150.654C60.3143 154.158 61.8023 156.254 64.4103 156.254ZM64.4103 153.934C63.4343 153.934 62.8903 152.766 62.8903 150.654C62.8903 148.558 63.4343 147.374 64.4103 147.374C65.3863 147.374 65.9303 148.558 65.9303 150.654C65.9303 152.766 65.3863 153.934 64.4103 153.934ZM69.9947 151.902C69.9947 154.398 71.3707 156.254 73.8507 156.254C75.8507 156.254 77.5147 154.606 77.5147 152.59C77.5147 150.222 75.8347 149.118 74.3307 149.118C73.8987 149.118 73.2267 149.262 72.8107 149.438C73.1467 147.79 75.2747 147.054 76.0267 146.814C76.3467 146.718 76.3947 146.542 76.3307 146.35L75.8667 145.118C75.7867 144.894 75.6107 144.782 75.3707 144.862C73.9947 145.294 69.9947 147.198 69.9947 151.902ZM72.2827 152.51C72.2827 151.662 72.9707 150.958 73.8187 150.958C74.6667 150.958 75.3547 151.662 75.3547 152.51C75.3547 153.342 74.6667 154.046 73.8187 154.046C72.9707 154.046 72.2827 153.342 72.2827 152.51ZM78.3961 155.694C78.3321 155.918 78.4761 156.094 78.6841 156.094H80.2681C80.3801 156.094 80.5241 155.998 80.5561 155.886L83.6761 145.294C83.7401 145.07 83.6121 144.894 83.3881 144.894H81.8201C81.6921 144.894 81.5641 144.99 81.5321 145.102L78.3961 155.694ZM84.3332 155.79C84.3332 155.95 84.4612 156.094 84.6372 156.094H91.0372C91.1972 156.094 91.3412 155.95 91.3412 155.79V154.35C91.3412 154.19 91.1972 154.046 91.0372 154.046H88.2212C88.9732 152.99 90.2852 151.278 90.7972 150.366C91.1812 149.614 91.4212 149.134 91.4212 148.286C91.4212 146.51 90.0772 145.054 87.7892 145.054C85.8852 145.054 84.5892 146.622 84.5892 146.622C84.4772 146.75 84.4932 146.942 84.6052 147.038L85.5812 148.03C85.7092 148.158 85.9012 148.158 86.0292 148.03C86.3332 147.694 86.9252 147.23 87.5812 147.23C88.4772 147.23 88.9892 147.774 88.9892 148.382C88.9892 148.83 88.7812 149.278 88.5732 149.598C87.6292 151.038 85.2612 154.254 84.3332 155.47V155.79ZM94.408 155.79C94.408 155.95 94.536 156.094 94.712 156.094H96.488C96.648 156.094 96.776 155.95 96.776 155.79V145.518C96.776 145.358 96.648 145.214 96.488 145.214H95.016L92.68 147.038C92.632 147.086 92.584 147.214 92.584 147.278V148.286C92.584 148.446 92.712 148.59 92.872 148.59H94.408V155.79Z" fill="white"/>
<path d="M152.376 156.254C154.984 156.254 156.472 154.158 156.472 150.654C156.472 147.15 154.984 145.054 152.376 145.054C149.768 145.054 148.28 147.15 148.28 150.654C148.28 154.158 149.768 156.254 152.376 156.254ZM152.376 153.934C151.4 153.934 150.856 152.766 150.856 150.654C150.856 148.558 151.4 147.374 152.376 147.374C153.352 147.374 153.896 148.558 153.896 150.654C153.896 152.766 153.352 153.934 152.376 153.934ZM157.96 151.902C157.96 154.398 159.336 156.254 161.816 156.254C163.816 156.254 165.48 154.606 165.48 152.59C165.48 150.222 163.8 149.118 162.296 149.118C161.864 149.118 161.192 149.262 160.776 149.438C161.112 147.79 163.24 147.054 163.992 146.814C164.312 146.718 164.36 146.542 164.296 146.35L163.832 145.118C163.752 144.894 163.576 144.782 163.336 144.862C161.96 145.294 157.96 147.198 157.96 151.902ZM160.248 152.51C160.248 151.662 160.936 150.958 161.784 150.958C162.632 150.958 163.32 151.662 163.32 152.51C163.32 153.342 162.632 154.046 161.784 154.046C160.936 154.046 160.248 153.342 160.248 152.51ZM166.362 155.694C166.298 155.918 166.442 156.094 166.65 156.094H168.234C168.346 156.094 168.49 155.998 168.522 155.886L171.642 145.294C171.706 145.07 171.578 144.894 171.354 144.894H169.786C169.658 144.894 169.53 144.99 169.498 145.102L166.362 155.694ZM172.299 155.79C172.299 155.95 172.427 156.094 172.603 156.094H179.003C179.163 156.094 179.307 155.95 179.307 155.79V154.35C179.307 154.19 179.163 154.046 179.003 154.046H176.187C176.939 152.99 178.251 151.278 178.763 150.366C179.147 149.614 179.387 149.134 179.387 148.286C179.387 146.51 178.043 145.054 175.755 145.054C173.851 145.054 172.555 146.622 172.555 146.622C172.443 146.75 172.459 146.942 172.571 147.038L173.547 148.03C173.675 148.158 173.867 148.158 173.995 148.03C174.299 147.694 174.891 147.23 175.547 147.23C176.443 147.23 176.955 147.774 176.955 148.382C176.955 148.83 176.747 149.278 176.539 149.598C175.595 151.038 173.227 154.254 172.299 155.47V155.79ZM180.742 155.79C180.742 155.966 180.886 156.094 181.062 156.094H182.646C182.886 156.094 183.11 156.03 183.302 155.63L188.086 145.63V145.518C188.086 145.358 187.942 145.214 187.782 145.214H181.03C180.87 145.214 180.726 145.358 180.726 145.518V146.958C180.726 147.118 180.87 147.262 181.03 147.262H184.742L180.742 155.614V155.79Z" fill="white"/>
<path d="M127.218 153.306C127.218 153.406 127.298 153.496 127.408 153.496H131.548C131.658 153.496 131.738 153.406 131.738 153.306V152.216C131.738 152.116 131.658 152.026 131.548 152.026H128.778V150.676H131.058C131.158 150.676 131.248 150.596 131.248 150.486V149.396C131.248 149.296 131.158 149.206 131.058 149.206H128.778V147.966H131.548C131.658 147.966 131.738 147.876 131.738 147.776V146.686C131.738 146.586 131.658 146.496 131.548 146.496H127.408C127.298 146.496 127.218 146.586 127.218 146.686V153.306ZM132.458 153.216C132.368 153.346 132.458 153.496 132.628 153.496H134.018C134.098 153.496 134.158 153.446 134.188 153.406L135.468 151.386H135.488L136.798 153.406C136.828 153.456 136.908 153.496 136.968 153.496H138.358C138.518 153.496 138.608 153.356 138.518 153.216L136.418 149.906L138.448 146.776C138.538 146.646 138.448 146.496 138.278 146.496H136.818C136.748 146.496 136.678 146.546 136.658 146.586L135.488 148.446H135.478L134.328 146.586C134.298 146.546 134.238 146.496 134.168 146.496H132.708C132.538 146.496 132.458 146.646 132.538 146.776L134.558 149.906L132.458 153.216ZM139.63 153.306C139.63 153.406 139.71 153.496 139.82 153.496H141C141.1 153.496 141.19 153.406 141.19 153.306V150.956H142.24C143.46 150.956 144.47 149.946 144.47 148.706C144.47 147.496 143.46 146.496 142.23 146.496H139.82C139.71 146.496 139.63 146.586 139.63 146.686V153.306ZM141.19 149.496V147.966H142.14C142.57 147.966 142.93 148.286 142.93 148.706C142.93 149.156 142.57 149.496 142.14 149.496H141.19Z" fill="white"/>
<path d="M33.5107 109.14H34.9867C35.3467 109.14 35.6707 108.816 35.6707 108.456L35.5987 105.252L38.2627 107.052C38.5507 107.232 38.9827 107.16 39.1627 106.872L40.0627 105.612C40.2427 105.324 40.2067 104.892 39.8467 104.676L36.7507 102.804L39.8467 100.968C40.2067 100.752 40.2427 100.284 40.0267 99.9605L39.2347 98.7365C39.0547 98.4485 38.5867 98.3765 38.2987 98.5565L35.5987 100.392L35.6707 97.1165C35.6707 96.7565 35.3467 96.4325 34.9867 96.4325H33.5107C33.1507 96.4325 32.8267 96.7565 32.8267 97.1165L32.8987 100.392L30.2347 98.5565C29.9467 98.3405 29.5507 98.4485 29.3347 98.7005C29.0467 99.0965 28.8307 99.4205 28.4707 99.9605C28.2907 100.284 28.3627 100.716 28.6867 100.932L31.7827 102.804L28.6867 104.64C28.3267 104.856 28.2907 105.288 28.5067 105.612L29.2987 106.872C29.4787 107.16 29.9467 107.268 30.2347 107.052L32.8987 105.216L32.8267 108.456C32.8267 108.816 33.1507 109.14 33.5107 109.14ZM46.624 109.14H48.1C48.46 109.14 48.784 108.816 48.784 108.456L48.712 105.252L51.376 107.052C51.664 107.232 52.096 107.16 52.276 106.872L53.176 105.612C53.356 105.324 53.32 104.892 52.96 104.676L49.864 102.804L52.96 100.968C53.32 100.752 53.356 100.284 53.14 99.9605L52.348 98.7365C52.168 98.4485 51.7 98.3765 51.412 98.5565L48.712 100.392L48.784 97.1165C48.784 96.7565 48.46 96.4325 48.1 96.4325H46.624C46.264 96.4325 45.94 96.7565 45.94 97.1165L46.012 100.392L43.348 98.5565C43.06 98.3405 42.664 98.4485 42.448 98.7005C42.16 99.0965 41.944 99.4205 41.584 99.9605C41.404 100.284 41.476 100.716 41.8 100.932L44.896 102.804L41.8 104.64C41.44 104.856 41.404 105.288 41.62 105.612L42.412 106.872C42.592 107.16 43.06 107.268 43.348 107.052L46.012 105.216L45.94 108.456C45.94 108.816 46.264 109.14 46.624 109.14ZM59.7373 109.14H61.2133C61.5733 109.14 61.8973 108.816 61.8973 108.456L61.8253 105.252L64.4893 107.052C64.7773 107.232 65.2093 107.16 65.3893 106.872L66.2893 105.612C66.4693 105.324 66.4333 104.892 66.0733 104.676L62.9773 102.804L66.0733 100.968C66.4333 100.752 66.4693 100.284 66.2533 99.9605L65.4613 98.7365C65.2813 98.4485 64.8133 98.3765 64.5253 98.5565L61.8253 100.392L61.8973 97.1165C61.8973 96.7565 61.5733 96.4325 61.2133 96.4325H59.7373C59.3773 96.4325 59.0533 96.7565 59.0533 97.1165L59.1253 100.392L56.4613 98.5565C56.1733 98.3405 55.7773 98.4485 55.5613 98.7005C55.2733 99.0965 55.0573 99.4205 54.6973 99.9605C54.5173 100.284 54.5893 100.716 54.9133 100.932L58.0093 102.804L54.9133 104.64C54.5533 104.856 54.5173 105.288 54.7333 105.612L55.5253 106.872C55.7053 107.16 56.1733 107.268 56.4613 107.052L59.1253 105.216L59.0533 108.456C59.0533 108.816 59.3773 109.14 59.7373 109.14ZM72.8506 109.14H74.3266C74.6866 109.14 75.0106 108.816 75.0106 108.456L74.9386 105.252L77.6026 107.052C77.8906 107.232 78.3226 107.16 78.5026 106.872L79.4026 105.612C79.5826 105.324 79.5466 104.892 79.1866 104.676L76.0906 102.804L79.1866 100.968C79.5466 100.752 79.5826 100.284 79.3666 99.9605L78.5746 98.7365C78.3946 98.4485 77.9266 98.3765 77.6386 98.5565L74.9386 100.392L75.0106 97.1165C75.0106 96.7565 74.6866 96.4325 74.3266 96.4325H72.8506C72.4906 96.4325 72.1666 96.7565 72.1666 97.1165L72.2386 100.392L69.5746 98.5565C69.2866 98.3405 68.8906 98.4485 68.6746 98.7005C68.3866 99.0965 68.1706 99.4205 67.8106 99.9605C67.6306 100.284 67.7026 100.716 68.0266 100.932L71.1226 102.804L68.0266 104.64C67.6666 104.856 67.6306 105.288 67.8466 105.612L68.6386 106.872C68.8186 107.16 69.2866 107.268 69.5746 107.052L72.2386 105.216L72.1666 108.456C72.1666 108.816 72.4906 109.14 72.8506 109.14ZM93.9091 109.14H95.3851C95.7451 109.14 96.0691 108.816 96.0691 108.456L95.9971 105.252L98.6611 107.052C98.9491 107.232 99.3811 107.16 99.5611 106.872L100.461 105.612C100.641 105.324 100.605 104.892 100.245 104.676L97.1491 102.804L100.245 100.968C100.605 100.752 100.641 100.284 100.425 99.9605L99.6331 98.7365C99.4531 98.4485 98.9851 98.3765 98.6971 98.5565L95.9971 100.392L96.0691 97.1165C96.0691 96.7565 95.7451 96.4325 95.3851 96.4325H93.9091C93.5491 96.4325 93.2251 96.7565 93.2251 97.1165L93.2971 100.392L90.6331 98.5565C90.3451 98.3405 89.9491 98.4485 89.7331 98.7005C89.4451 99.0965 89.2291 99.4205 88.8691 99.9605C88.6891 100.284 88.7611 100.716 89.0851 100.932L92.1811 102.804L89.0851 104.64C88.7251 104.856 88.6891 105.288 88.9051 105.612L89.6971 106.872C89.8771 107.16 90.3451 107.268 90.6331 107.052L93.2971 105.216L93.2251 108.456C93.2251 108.816 93.5491 109.14 93.9091 109.14ZM107.022 109.14H108.498C108.858 109.14 109.182 108.816 109.182 108.456L109.11 105.252L111.774 107.052C112.062 107.232 112.494 107.16 112.674 106.872L113.574 105.612C113.754 105.324 113.718 104.892 113.358 104.676L110.262 102.804L113.358 100.968C113.718 100.752 113.754 100.284 113.538 99.9605L112.746 98.7365C112.566 98.4485 112.098 98.3765 111.81 98.5565L109.11 100.392L109.182 97.1165C109.182 96.7565 108.858 96.4325 108.498 96.4325H107.022C106.662 96.4325 106.338 96.7565 106.338 97.1165L106.41 100.392L103.746 98.5565C103.458 98.3405 103.062 98.4485 102.846 98.7005C102.558 99.0965 102.342 99.4205 101.982 99.9605C101.802 100.284 101.874 100.716 102.198 100.932L105.294 102.804L102.198 104.64C101.838 104.856 101.802 105.288 102.018 105.612L102.81 106.872C102.99 107.16 103.458 107.268 103.746 107.052L106.41 105.216L106.338 108.456C106.338 108.816 106.662 109.14 107.022 109.14ZM120.136 109.14H121.612C121.972 109.14 122.296 108.816 122.296 108.456L122.224 105.252L124.888 107.052C125.176 107.232 125.608 107.16 125.788 106.872L126.688 105.612C126.868 105.324 126.832 104.892 126.472 104.676L123.376 102.804L126.472 100.968C126.832 100.752 126.868 100.284 126.652 99.9605L125.86 98.7365C125.68 98.4485 125.212 98.3765 124.924 98.5565L122.224 100.392L122.296 97.1165C122.296 96.7565 121.972 96.4325 121.612 96.4325H120.136C119.776 96.4325 119.452 96.7565 119.452 97.1165L119.524 100.392L116.86 98.5565C116.572 98.3405 116.176 98.4485 115.96 98.7005C115.672 99.0965 115.456 99.4205 115.096 99.9605C114.916 100.284 114.988 100.716 115.312 100.932L118.408 102.804L115.312 104.64C114.952 104.856 114.916 105.288 115.132 105.612L115.924 106.872C116.104 107.16 116.572 107.268 116.86 107.052L119.524 105.216L119.452 108.456C119.452 108.816 119.776 109.14 120.136 109.14ZM133.249 109.14H134.725C135.085 109.14 135.409 108.816 135.409 108.456L135.337 105.252L138.001 107.052C138.289 107.232 138.721 107.16 138.901 106.872L139.801 105.612C139.981 105.324 139.945 104.892 139.585 104.676L136.489 102.804L139.585 100.968C139.945 100.752 139.981 100.284 139.765 99.9605L138.973 98.7365C138.793 98.4485 138.325 98.3765 138.037 98.5565L135.337 100.392L135.409 97.1165C135.409 96.7565 135.085 96.4325 134.725 96.4325H133.249C132.889 96.4325 132.565 96.7565 132.565 97.1165L132.637 100.392L129.973 98.5565C129.685 98.3405 129.289 98.4485 129.073 98.7005C128.785 99.0965 128.569 99.4205 128.209 99.9605C128.029 100.284 128.101 100.716 128.425 100.932L131.521 102.804L128.425 104.64C128.065 104.856 128.029 105.288 128.245 105.612L129.037 106.872C129.217 107.16 129.685 107.268 129.973 107.052L132.637 105.216L132.565 108.456C132.565 108.816 132.889 109.14 133.249 109.14ZM154.308 109.14H155.784C156.144 109.14 156.468 108.816 156.468 108.456L156.396 105.252L159.06 107.052C159.348 107.232 159.78 107.16 159.96 106.872L160.86 105.612C161.04 105.324 161.004 104.892 160.644 104.676L157.548 102.804L160.644 100.968C161.004 100.752 161.04 100.284 160.824 99.9605L160.032 98.7365C159.852 98.4485 159.384 98.3765 159.096 98.5565L156.396 100.392L156.468 97.1165C156.468 96.7565 156.144 96.4325 155.784 96.4325H154.308C153.948 96.4325 153.624 96.7565 153.624 97.1165L153.696 100.392L151.032 98.5565C150.744 98.3405 150.348 98.4485 150.132 98.7005C149.844 99.0965 149.628 99.4205 149.268 99.9605C149.088 100.284 149.16 100.716 149.484 100.932L152.58 102.804L149.484 104.64C149.124 104.856 149.088 105.288 149.304 105.612L150.096 106.872C150.276 107.16 150.744 107.268 151.032 107.052L153.696 105.216L153.624 108.456C153.624 108.816 153.948 109.14 154.308 109.14ZM167.421 109.14H168.897C169.257 109.14 169.581 108.816 169.581 108.456L169.509 105.252L172.173 107.052C172.461 107.232 172.893 107.16 173.073 106.872L173.973 105.612C174.153 105.324 174.117 104.892 173.757 104.676L170.661 102.804L173.757 100.968C174.117 100.752 174.153 100.284 173.937 99.9605L173.145 98.7365C172.965 98.4485 172.497 98.3765 172.209 98.5565L169.509 100.392L169.581 97.1165C169.581 96.7565 169.257 96.4325 168.897 96.4325H167.421C167.061 96.4325 166.737 96.7565 166.737 97.1165L166.809 100.392L164.145 98.5565C163.857 98.3405 163.461 98.4485 163.245 98.7005C162.957 99.0965 162.741 99.4205 162.381 99.9605C162.201 100.284 162.273 100.716 162.597 100.932L165.693 102.804L162.597 104.64C162.237 104.856 162.201 105.288 162.417 105.612L163.209 106.872C163.389 107.16 163.857 107.268 164.145 107.052L166.809 105.216L166.737 108.456C166.737 108.816 167.061 109.14 167.421 109.14ZM180.534 109.14H182.01C182.37 109.14 182.694 108.816 182.694 108.456L182.622 105.252L185.286 107.052C185.574 107.232 186.006 107.16 186.186 106.872L187.086 105.612C187.266 105.324 187.23 104.892 186.87 104.676L183.774 102.804L186.87 100.968C187.23 100.752 187.266 100.284 187.05 99.9605L186.258 98.7365C186.078 98.4485 185.61 98.3765 185.322 98.5565L182.622 100.392L182.694 97.1165C182.694 96.7565 182.37 96.4325 182.01 96.4325H180.534C180.174 96.4325 179.85 96.7565 179.85 97.1165L179.922 100.392L177.258 98.5565C176.97 98.3405 176.574 98.4485 176.358 98.7005C176.07 99.0965 175.854 99.4205 175.494 99.9605C175.314 100.284 175.386 100.716 175.71 100.932L178.806 102.804L175.71 104.64C175.35 104.856 175.314 105.288 175.53 105.612L176.322 106.872C176.502 107.16 176.97 107.268 177.258 107.052L179.922 105.216L179.85 108.456C179.85 108.816 180.174 109.14 180.534 109.14ZM193.647 109.14H195.123C195.483 109.14 195.807 108.816 195.807 108.456L195.735 105.252L198.399 107.052C198.687 107.232 199.119 107.16 199.299 106.872L200.199 105.612C200.379 105.324 200.343 104.892 199.983 104.676L196.887 102.804L199.983 100.968C200.343 100.752 200.379 100.284 200.163 99.9605L199.371 98.7365C199.191 98.4485 198.723 98.3765 198.435 98.5565L195.735 100.392L195.807 97.1165C195.807 96.7565 195.483 96.4325 195.123 96.4325H193.647C193.287 96.4325 192.963 96.7565 192.963 97.1165L193.035 100.392L190.371 98.5565C190.083 98.3405 189.687 98.4485 189.471 98.7005C189.183 99.0965 188.967 99.4205 188.607 99.9605C188.427 100.284 188.499 100.716 188.823 100.932L191.919 102.804L188.823 104.64C188.463 104.856 188.427 105.288 188.643 105.612L189.435 106.872C189.615 107.16 190.083 107.268 190.371 107.052L193.035 105.216L192.963 108.456C192.963 108.816 193.287 109.14 193.647 109.14Z" fill="white"/>
<path d="M218.078 110.2C221.338 110.2 223.198 107.58 223.198 103.2C223.198 98.82 221.338 96.2 218.078 96.2C214.818 96.2 212.958 98.82 212.958 103.2C212.958 107.58 214.818 110.2 218.078 110.2ZM218.078 107.3C216.858 107.3 216.178 105.84 216.178 103.2C216.178 100.58 216.858 99.1 218.078 99.1C219.298 99.1 219.978 100.58 219.978 103.2C219.978 105.84 219.298 107.3 218.078 107.3ZM230.558 110.2C233.818 110.2 235.678 107.58 235.678 103.2C235.678 98.82 233.818 96.2 230.558 96.2C227.298 96.2 225.438 98.82 225.438 103.2C225.438 107.58 227.298 110.2 230.558 110.2ZM230.558 107.3C229.338 107.3 228.658 105.84 228.658 103.2C228.658 100.58 229.338 99.1 230.558 99.1C231.778 99.1 232.458 100.58 232.458 103.2C232.458 105.84 231.778 107.3 230.558 107.3ZM243.039 110.2C246.299 110.2 248.159 107.58 248.159 103.2C248.159 98.82 246.299 96.2 243.039 96.2C239.779 96.2 237.919 98.82 237.919 103.2C237.919 107.58 239.779 110.2 243.039 110.2ZM243.039 107.3C241.819 107.3 241.139 105.84 241.139 103.2C241.139 100.58 241.819 99.1 243.039 99.1C244.259 99.1 244.939 100.58 244.939 103.2C244.939 105.84 244.259 107.3 243.039 107.3ZM255.519 110.2C258.779 110.2 260.639 107.58 260.639 103.2C260.639 98.82 258.779 96.2 255.519 96.2C252.259 96.2 250.399 98.82 250.399 103.2C250.399 107.58 252.259 110.2 255.519 110.2ZM255.519 107.3C254.299 107.3 253.619 105.84 253.619 103.2C253.619 100.58 254.299 99.1 255.519 99.1C256.739 99.1 257.419 100.58 257.419 103.2C257.419 105.84 256.739 107.3 255.519 107.3Z" fill="white"/>
<path d="M270.285 158.75C270.285 157.25 268.972 157.062 267.66 157.062H264.004V163.531H265.597V161.188H267.285C268.972 161.188 268.597 162.125 268.597 163.531H270.191V162.219C270.191 161.375 270.004 160.812 269.16 160.531C269.816 160.25 270.285 159.5 270.285 158.75ZM267.472 159.875H265.597V158.375H267.566C268.035 158.375 268.504 158.469 268.504 159.125C268.504 159.688 268.035 159.875 267.472 159.875ZM265.972 168.219H261.004L259.035 170.375L257.066 168.219H250.879V174.688H256.972L258.941 172.531L260.91 174.688H263.91V172.531C265.691 172.531 268.504 173 268.504 170.375C268.504 168.688 267.379 168.219 265.972 168.219ZM256.222 173.375H252.379V172.062H255.754V170.75H252.379V169.531H256.316L258.004 171.5L256.222 173.375ZM262.41 174.125L259.972 171.5L262.41 168.875V174.125ZM265.879 171.219H263.91V169.531H265.972C266.441 169.531 266.91 169.812 266.91 170.375C266.91 170.938 266.441 171.219 265.879 171.219ZM262.972 158.375V157.062H257.722V163.531H262.972V162.219H259.316V160.906H262.879V159.594H259.316V158.375H262.972ZM293.816 167H293.722H293.816ZM275.535 170C275.535 168.406 274.222 168.219 273.004 168.219H269.254V174.688H270.847V172.344H272.535C273.566 172.344 273.847 172.531 273.847 173.656V174.688H275.441V173.469C275.441 172.625 275.254 171.969 274.41 171.688C275.16 171.406 275.535 170.656 275.535 170ZM272.816 171.031H270.847V169.531H272.816C273.285 169.531 273.847 169.625 273.847 170.281C273.847 170.938 273.285 171.031 272.816 171.031ZM256.597 163.531V157.062H253.972L252.191 161.469L250.129 157.062H247.597V163.156L244.972 157.062H242.629L239.91 163.531H241.504L242.16 162.125H245.347L246.004 163.531H249.191V158.469L251.441 163.531H252.754L255.004 158.469V163.531H256.597ZM242.722 160.719L243.754 158.188L244.785 160.719H242.722ZM287.441 175.625V175.25C286.41 175.719 287.066 175.625 272.722 175.625C272.722 173.281 272.816 173.375 272.722 173.281C272.629 173.281 272.441 173.281 271.879 173.281C271.879 174.969 271.879 173.938 271.879 175.625H268.129C268.129 174.5 268.129 174.219 268.129 172.906C267.191 173.469 266.066 173.469 264.941 173.469C264.941 174.875 264.941 174.219 264.941 175.625H260.347C259.879 175.062 260.066 175.344 258.941 174.031C258.66 174.312 257.722 175.344 257.441 175.625H249.754V167H257.535C258.004 167.469 257.816 167.281 258.941 168.594C259.222 168.312 260.066 167.375 260.441 167H265.879C266.816 167 267.566 167.188 268.129 167.469V167C273.285 167 274.222 166.812 275.254 167.469V167H282.566V167.469C283.691 166.812 284.441 167 288.66 167V167.469C289.597 166.906 290.254 167 293.722 167V150.5C293.722 148.062 291.754 146 289.222 146H244.222C241.785 146 239.722 148.062 239.722 150.5V160.812C240.66 158.75 241.597 156.5 241.879 155.75H245.629C246.004 156.688 245.816 156.125 246.472 157.719V155.75H250.785C251.066 156.406 251.816 158 252.097 158.562C252.66 157.344 253.035 156.312 253.316 155.75H262.972H264.004C268.129 155.844 269.066 155.75 270.097 156.312V155.75H273.847V156.688C274.504 156.125 275.441 155.75 276.66 155.75H279.285C279.285 155.844 279.472 155.844 279.472 155.844H282.566C282.941 156.688 282.754 156.406 283.316 157.719V155.844H287.441C287.91 156.594 287.347 155.656 288.472 157.531V155.844H292.222V164.469H288.285C287.816 163.625 288.191 164.188 287.066 162.406V164.469H282.097C281.535 163.062 282.097 164.375 281.535 162.969H279.754C279.285 163.906 279.472 163.531 279.097 164.469H276.566C275.441 164.469 274.504 164.188 273.847 163.625V164.469H267.566C267.566 163.156 267.566 162.125 267.566 162.125C267.379 162.125 267.285 162.125 266.629 162.125V164.469H253.972V163.344C253.691 163.906 253.691 163.906 253.504 164.469H250.691C250.316 163.625 250.41 163.812 250.222 163.344V164.469H245.254C244.879 163.531 245.066 163.906 244.691 162.969H242.91C242.441 163.906 242.629 163.531 242.254 164.469H239.816V183.5C239.816 186.031 241.785 188 244.316 188H289.316C291.754 188 293.816 186.031 293.816 183.5V175.062C292.597 175.812 290.722 175.625 287.441 175.625ZM290.816 169.625H293.722V168.219H290.629C289.41 168.219 288.379 168.875 288.379 170.188C288.379 173.281 292.41 171.406 292.41 172.719C292.41 173.188 291.941 173.375 291.566 173.375H288.566V174.688H291.566C292.316 174.688 293.254 174.594 293.722 173.844V171.5C292.691 170.188 289.972 171.312 289.972 170.188C289.972 169.625 290.441 169.625 290.816 169.625ZM285.472 173.281H282.472V174.688H285.472C286.879 174.688 288.004 174.219 288.004 172.625C288.004 169.531 283.972 171.594 283.972 170.188C283.972 169.625 284.441 169.625 284.816 169.625H287.629V168.219H284.535C283.316 168.219 282.379 168.875 282.379 170.188C282.379 173.281 286.316 171.312 286.316 172.719C286.316 173.188 285.941 173.281 285.472 173.281ZM281.535 169.531V168.219H276.379V174.688H281.535V173.375H277.972V172.062H281.535V170.75H277.972V169.531H281.535ZM276.285 159.406C276.285 159.406 276.191 159.594 276.191 160.156C276.191 160.719 276.191 160.906 276.285 160.906C276.285 160.906 276.379 160.906 276.566 160.906L277.222 159.312C277.129 159.312 277.035 159.312 276.941 159.312C276.472 159.312 276.285 159.406 276.285 159.406ZM276.66 157.062C274.504 157.062 273.472 158.188 273.472 160.344C273.472 162.406 274.41 163.531 276.566 163.531H278.347L279.004 162.125H282.191L282.847 163.531H285.941V158.656L288.941 163.531H291.097V157.062H289.504V161.562L286.785 157.062H284.441V163.156L281.816 157.062H279.472L277.316 162.125H276.566C275.347 162.125 275.066 161.375 275.066 160.25C275.066 158.094 276.566 158.375 278.16 158.469V157.062H276.66ZM280.597 158.188L281.629 160.719H279.566L280.597 158.188ZM271.129 157.062V163.531H272.722V157.062H271.129Z" fill="white"/>
<path d="M277.275 67.5174C279.033 66.1893 281.22 65.1346 283.915 65.1346C287.04 65.1346 289.58 66.5799 291.415 68.2987C293.251 69.9784 294.462 72.0096 295.048 73.4159C295.165 73.7284 295.165 74.0799 295.048 74.3924C294.54 75.6424 293.486 77.4393 291.923 79.0018L296.025 82.244C296.455 82.5565 296.533 83.1424 296.181 83.5331C295.869 83.9627 295.283 84.0409 294.892 83.6893L271.767 65.5643C271.337 65.2518 271.259 64.6659 271.611 64.2752C271.923 63.8456 272.509 63.7674 272.9 64.119L277.275 67.5174ZM280.126 69.744L283.642 72.5174C283.798 72.1659 283.915 71.8143 283.915 71.3846C283.915 70.9549 283.759 70.5252 283.564 70.1737C283.681 70.1737 283.798 70.1346 283.915 70.1346C285.986 70.1346 287.665 71.8143 287.665 73.8846C287.665 74.4315 287.548 74.9393 287.314 75.4081L288.837 76.5799C289.267 75.7987 289.54 74.8612 289.54 73.8846C289.54 70.7987 287.001 68.2596 283.915 68.2596C282.431 68.2596 281.103 68.8456 280.126 69.744ZM283.915 82.6346C280.751 82.6346 278.212 81.2284 276.376 79.5096C274.54 77.7909 273.33 75.7596 272.744 74.3924C272.626 74.0799 272.626 73.7284 272.744 73.4159C273.134 72.5174 273.759 71.3846 274.658 70.2127L278.33 73.1034C278.29 73.3768 278.29 73.6502 278.29 73.8846C278.29 77.0096 280.79 79.5096 283.915 79.5096C284.619 79.5096 285.322 79.3924 285.986 79.119L288.837 81.3846C287.392 82.1659 285.751 82.6346 283.915 82.6346Z" fill="white"/>
<defs>
<filter id="filter0_d_429_172" x="0" y="0" width="315" height="214" filterUnits="userSpaceOnUse" color-interpolation-filters="sRGB">
<feFlood flood-opacity="0" result="BackgroundImageFix"/>
<feColorMatrix in="SourceAlpha" type="matrix" values="0 0 0 0 0 0 0 0 0 0 0 0 0 0 0 0 0 0 127 0" result="hardAlpha"/>
<feOffset dy="4"/>
<feGaussianBlur stdDeviation="2"/>
<feComposite in2="hardAlpha" operator="out"/>
<feColorMatrix type="matrix" values="0 0 0 0 0 0 0 0 0 0 0 0 0 0 0 0 0 0 0.25 0"/>
<feBlend mode="normal" in2="BackgroundImageFix" result="effect1_dropShadow_429_172"/>
<feBlend mode="normal" in="SourceGraphic" in2="effect1_dropShadow_429_172" result="shape"/>
</filter>
<filter id="filter1_d_429_172" x="-7.62939e-06" y="3.05176e-05" width="315" height="120.504" filterUnits="userSpaceOnUse" color-interpolation-filters="sRGB">
<feFlood flood-opacity="0" result="BackgroundImageFix"/>
<feColorMatrix in="SourceAlpha" type="matrix" values="0 0 0 0 0 0 0 0 0 0 0 0 0 0 0 0 0 0 127 0" result="hardAlpha"/>
<feOffset dy="4"/>
<feGaussianBlur stdDeviation="2"/>
<feComposite in2="hardAlpha" operator="out"/>
<feColorMatrix type="matrix" values="0 0 0 0 0 0 0 0 0 0 0 0 0 0 0 0 0 0 0.25 0"/>
<feBlend mode="normal" in2="BackgroundImageFix" result="effect1_dropShadow_429_172"/>
<feBlend mode="normal" in="SourceGraphic" in2="effect1_dropShadow_429_172" result="shape"/>
</filter>
</defs>
</svg>
